<svg xmlns="http://www.w3.org/2000/svg" viewBox="0 0 980 980" fill="none" shape-rendering="auto"><desc>"Lorelei" by "Lisa Wischofsky", licensed under "CC0 1.0". / Remix of the original. - Created with dicebear.com</desc><metadata xmlns:dc="http://purl.org/dc/elements/1.1/" xmlns:cc="http://creativecommons.org/ns#" xmlns:rdf="http://www.w3.org/1999/02/22-rdf-syntax-ns#"><rdf:RDF><cc:Work><dc:title>Lorelei</dc:title><dc:creator><cc:Agent rdf:about="https://www.instagram.com/lischi_art/"><dc:title>Lisa Wischofsky</dc:title></cc:Agent></dc:creator><dc:source>https://www.figma.com/community/file/1198749693280469639</dc:source><cc:license rdf:resource="https://creativecommons.org/licenses/zero/1.0/" /></cc:Work></rdf:RDF></metadata><mask id="viewboxMask"><rect width="980" height="980" rx="0" ry="0" x="0" y="0" fill="#fff" /></mask><g mask="url(#viewboxMask)"><g transform="translate(10 -60)"><path fill-rule="evenodd" clip-rule="evenodd" d="m555 134-4-1-18 3a266 266 0 0 0-97 46c-12 8-23 18-32 29a121 121 0 0 0-43-36l-17-9-7-2c-2 0-4 3-5 5 0 3 2 7 4 10l4 6 8 13 12 17 11 15a248 248 0 0 0-21 9l-14 7-10 5c-10 4-20 10-29 15l-4 2-19 12-3 3c-10 7-20 13-28 22-10 10-19 21-25 34a203 203 0 0 0-21 76l-1 6-4 38v75c0 10 1 20-1 29l-8 53c-6 31-11 62-13 94a185 185 0 0 0 38 138l11 8-3-6-4-5-8-18-2-3a291 291 0 0 1-16-51 206 206 0 0 0 52 79c9 8 19 15 31 18 4 0 7 0 9-3v-8l-1-7-2-9c14 11 29 18 46 21 10 3 21 2 31 0l14-1 8-1 49-4a1209 1209 0 0 1 118-8c15 1 30 4 45 7h10l6-1c13-2 25-5 38-9a179 179 0 0 0 46-25 164 164 0 0 1-19 44l-3 5c6 2 11 4 16 3 14-2 25-10 36-18l6-3 5-2a134 134 0 0 0 59-55c12-22 20-48 21-74 0-23-3-45-10-67l-14-37-3-9a2009 2009 0 0 1-20-53 455 455 0 0 1-21-75v-1c3-16 5-33 5-50-1-16-6-31-12-46a276 276 0 0 1 42 92 241 241 0 0 1 3 74c0 5-1 11 2 15l4-5 4-9 2-7c11-25 15-54 13-82-2-35-14-70-33-100-20-34-47-62-78-86a353 353 0 0 0-215-71l21-22v-1a140 140 0 0 1 41-34l13-7 6-6-2-1Zm215 484-6-14 1 4c3 20 7 40 8 61 2 27 2 54-2 80-3 21-8 43-19 62-5 10-12 19-19 28a174 174 0 0 0 61-120c0-18-2-36-7-54l-17-47Z" fill="#000000"/><path d="M486 236c57-2 115 18 159 56a209 209 0 0 1 73 190c-1 4-1 8-4 12l-1-3v-33a215 215 0 0 0-172-206 235 235 0 0 0-270 153c-12 37-14 78-6 116 6-2 12-2 17-2 2 1 5 1 6 3s0 3-1 4l-12 4c-14 3-27 8-37 18a63 63 0 0 0-22 45c0 12 3 24 8 35 8 13 19 24 33 31 18 10 41 13 62 7 2-1 4-2 6-1s3 4 4 6l15 30a215 215 0 0 0 72 63c28 15 59 21 90 26 3 1 8 1 10 4 1 2 0 3-2 4l-11 1a231 231 0 0 1-147-62c5 18 8 36 8 54 0 12-2 23-6 34-5 10-11 18-19 26a196 196 0 0 1-60 43c-1-1 1-2 2-3l17-14c13-12 25-23 35-38a93 93 0 0 0 17-65l-4-39-2-10-12-17c-5-10-11-20-13-31a93 93 0 0 1-96-31 81 81 0 0 1-19-51c0-12 3-23 8-34 9-16 23-29 40-36-8-31-8-62-3-93 8-40 26-77 51-108 45-54 115-87 186-88Z" fill="#000"/><path d="M541 252a214 214 0 0 1 172 206v33c-1 5-2 10-1 15-2 2-3 3-3 5-3 18-1 37 1 55 4 29 6 59 2 88-3 28-13 56-30 79-16 21-38 34-62 43-15 6-30 9-45 13-11 2-22 4-32 8 1 2 4 1 6 2 12 1 24-1 36-2-5 8-8 17-9 26-2 10 2 19 9 26 6 7 15 11 24 14 5 2 11 3 17 3 7 9 13 18 14 30 2 12-1 24-8 34-9 14-22 23-37 30-18 9-38 15-57 18a352 352 0 0 1-192-23c-18-10-38-23-48-42-4-7-8-16-6-24 18-10 33-23 47-38 8-8 14-16 19-26 4-11 6-22 6-34 0-18-3-36-8-54a235 235 0 0 0 147 62l11-1c2-1 3-2 2-4-2-3-7-3-10-4-31-5-62-11-90-26-18-10-36-22-50-37-8-8-16-17-22-26l-15-30c-1-2-2-5-4-6s-4 0-6 1a82 82 0 0 1-95-38c-5-11-8-23-8-35 1-17 9-34 22-45 10-10 23-15 37-18l12-4c1-1 2-2 1-4s-4-2-6-3c-5 0-11 0-17 2-8-38-6-79 6-116a236 236 0 0 1 270-153Z" fill="#ffffff"/><path d="m712 506 3 3 1 13 3 45c3 20 5 40 5 60 0 16-1 32-5 47-6 28-20 56-40 76a174 174 0 0 1-88 46c-1 9-4 16-4 25-1 6 2 10 5 15 8 8 18 14 28 19l18 9c-3 3-8 1-12 2-6 0-12-1-17-3-9-3-18-7-24-14-7-7-11-16-9-26 1-9 4-18 9-26-12 1-24 3-36 2-2-1-5 0-6-2 10-4 21-6 32-8 15-4 30-7 45-13 24-9 46-22 62-43 17-23 27-51 30-79 4-29 2-59-2-88-2-18-4-37-1-55 0-2 1-3 3-5ZM262 566c6 0 12 1 15 6 2 3 2 7 1 10-3 8-9 14-11 22-1 4 0 7 3 9 7 5 16 7 24 10l-2 2h-11c-6-1-12-2-17-5-5-4-9-11-7-18 2-9 9-15 12-23-7-4-14-2-20-8 3-4 8-6 13-5Z" fill="#000"/><path d="M623 498c2-1 5 2 6 3 8 8 19 13 30 13 5 0 11-1 16-3 2-2 4-5 7-6s7 0 9 2c4 3 4 10 0 13-5 7-14 10-22 11-10 1-21-2-30-8-8-4-14-10-17-18-1-3-2-6 1-7ZM530 500l3-1c3 2 1 5 0 7a97 97 0 0 1-50 38c-24 8-52 4-72-12-2-3-4-6-3-10s4-7 8-7c3 0 6 2 8 4 8 5 16 9 25 10 12 2 23 0 34-3 13-4 25-12 36-20 4-2 7-5 11-6Z" fill="#000000"/><path d="m688 421 1 2-13 14c-7 6-14 10-22 14l-26 19-13 6-9 1-10 20-1 1-1-1c-2-5 0-13 1-19 2-6 2-12 8-16 3-3 7-3 10-5l31-20c8-6 16-11 25-13l19-3ZM371 430c9 0 19 0 28 2 9 1 17 4 26 6 5 2 10 1 15 2 8 0 15-1 23 2 8 2 16 3 23 6 12 3 24 5 35 11 0-2 0-4 2-6 2-1 5 0 6 2 5 7 8 17 11 25 1 4-2 9-6 9-5 1-8-4-12-6-5-2-7-7-12-9l-30-9-19-5-15-3-15-4-24-9-30-9-6-5Z" fill="#000000"/><path d="m591 528 2 2 7 22c4 8 10 15 15 23 4 6 6 13 5 20-1 6-4 12-9 16-7 7-16 12-25 16-5 3-11 4-17 2l5-4c11-9 25-14 36-24 2-2 4-6 4-9-1-7-5-11-8-16-5-9-10-16-13-25-2-7-4-16-2-23Z" fill="#000000"/><path fill-rule="evenodd" clip-rule="evenodd" d="m634 683-9-3c-25-6-52-7-78-6l-13 1a774 774 0 0 1-85 0l-7-1c-2 2 1 4 2 5h1c2 2 4 3 7 3l4 2a147 147 0 0 0 69 28c15 2 31 3 47 2 7 0 15-1 22-4a68 68 0 0 0 24-19l3-3h3c4 0 8 1 12-1 0-2-1-2-2-3v-1Zm-31 3-14-2c-22-2-43 0-65 1h-4l-43 1 11 5 12 5c13 6 27 7 41 9h32c7 0 14-1 21-5l15-11 2-2-8-1Z" fill="#000000"/><path fill-rule="evenodd" clip-rule="evenodd" d="m550 141 7-6c-5-3-10-2-15-1h-2c-25 6-49 14-71 26-25 14-47 30-65 51a119 119 0 0 0-40-34 390 390 0 0 1-22-12h-8c-2 2-2 5-1 7a36 36 0 0 0 5 11 707 707 0 0 1 22 31l11 17h-2l-17 8-6 3-12 6-19 10-11 6-23 13-1 1-25 17c-10 8-19 18-26 28-8 13-10 27-13 41l-1 4-6 45-3 33-1 20-2 32-1 21c0 15-2 30-3 44a4695 4695 0 0 0-3 44c0 27 1 54 6 81 3 15 9 30 16 44a115 115 0 0 0 28 39l6 5 7-7 24-37a296 296 0 0 0 61 80 255 255 0 0 0 44 30c3 1 6 3 9 2 2 0 2-2 2-4l-6-6-6-6a305 305 0 0 1-38-105 557 557 0 0 1-7-148c8 30 20 59 36 85l2 3 16 25 1 1c3 4 5 7 9 9l-2-9-1-4a452 452 0 0 1-14-208 366 366 0 0 0 134-130c11-15 21-30 30-46l6 4c4 24 2 47-1 70v8c-3 20-8 39-17 57l-1 3-3 5c2 1 3 2 5 1 4-1 6-4 9-7l16-31c11-29 13-60 12-90a406 406 0 0 1 71 83 273 273 0 0 1 25 68 257 257 0 0 1-3 134c-1 3-2 6-1 9 5 0 9-3 12-6 6-6 11-14 16-21l1-1a204 204 0 0 0 33-75 582 582 0 0 0 10-84c-1-16-5-30-11-45a287 287 0 0 1 44 110c2 15 3 31 2 46v6l-1 11v2c0 3 0 5 3 7l3-7 4-7 2-6c11-26 15-56 13-85-3-37-16-73-36-103-20-31-46-58-75-80a357 357 0 0 0-215-72l5-5 25-28a122 122 0 0 1 32-24l12-7ZM438 385c16-23 32-47 45-72l-6 6-17 16a234 234 0 0 0-63 104c15-16 29-35 41-54Z" fill="#000000"/></g><g transform="translate(10 -60)"></g></g></svg>