<svg xmlns="http://www.w3.org/2000/svg" viewBox="0 0 980 980" fill="none" shape-rendering="auto"><desc>"Lorelei" by "Lisa Wischofsky", licensed under "CC0 1.0". / Remix of the original. - Created with dicebear.com</desc><metadata xmlns:dc="http://purl.org/dc/elements/1.1/" xmlns:cc="http://creativecommons.org/ns#" xmlns:rdf="http://www.w3.org/1999/02/22-rdf-syntax-ns#"><rdf:RDF><cc:Work><dc:title>Lorelei</dc:title><dc:creator><cc:Agent rdf:about="https://www.instagram.com/lischi_art/"><dc:title>Lisa Wischofsky</dc:title></cc:Agent></dc:creator><dc:source>https://www.figma.com/community/file/1198749693280469639</dc:source><cc:license rdf:resource="https://creativecommons.org/licenses/zero/1.0/" /></cc:Work></rdf:RDF></metadata><mask id="viewboxMask"><rect width="980" height="980" rx="0" ry="0" x="0" y="0" fill="#fff" /></mask><g mask="url(#viewboxMask)"><g transform="translate(10 -60)"><path fill-rule="evenodd" clip-rule="evenodd" d="M348 80h-9c-7-1-13-1-20 1-23 5-43 20-56 40-10 13-16 29-18 46l-1 1c-11 5-22 13-29 22a70 70 0 0 0-17 41c-1 14 3 28 11 40 6 10 15 19 26 25l-1 2c-10 7-18 14-26 23-19 21-33 47-43 74a275 275 0 0 0-12 118c4 19 10 38 21 55a182 182 0 0 0 78 67 435 435 0 0 0 141 234v1l10 6c2 0 3 1 4-1v-3l-1-1-9-18-5-8c-10-20-20-39-28-59-11-25-18-51-23-77a998 998 0 0 1-12-112c-2-16-1-32-1-48a2087 2087 0 0 0 3-10l1-1c8-6 14-13 21-20l1-1 10-11-8 35-1 3a394 394 0 0 1-15 49c0 3 2 5 4 6 3 3 8 3 12 3 9 0 18-2 27-4 12-3 24-8 34-16 15-9 27-22 38-35l-1 3a266 266 0 0 1-19 45c-2 4-5 9-6 14 0 2 2 3 3 3 3 1 7 0 11-2h1c16-6 29-16 42-27a252 252 0 0 0 53-68c14-24 26-50 32-78l1-3 1-3a231 231 0 0 1-11 96 215 215 0 0 1-49 87l-4 4-1 3c3 1 6-1 8-2l1-1c18-12 33-30 44-49a276 276 0 0 0 38-127c1-20 0-40-2-60s-6-41-16-59l2 1a340 340 0 0 1 58 58l3 3c-4 28-6 56-4 84l1 12c2 21 4 43 8 64 2 12 6 24 11 36l4 9 9 23 18 48a351 351 0 0 1 14 128 145 145 0 0 1-8 50l2 1c8-5 15-12 21-19a263 263 0 0 0 31-161c-5-45-15-88-26-131v-5c19-30 30-66 27-102-1-11-4-21-7-31 7 12 12 24 17 36l6 29a158 158 0 0 1-4 57l-2 11h4c5-3 8-10 10-15 6-14 8-30 9-45 2-21-5-42-14-61-9-20-20-40-34-57l-1-1c13 8 26 17 36 29a192 192 0 0 1 23 29c3 0 1-5 0-6a128 128 0 0 0-42-57c-13-10-28-18-43-24l-1-1-4-2-10-17c-19-24-44-43-71-58a298 298 0 0 0-124-36l18-8c14-8 26-19 35-32 5-7 9-16 7-25 0-2-2-5-4-3l-4 5-2 4c-9 13-22 22-35 31l1-3 1-1c5-11 8-23 5-35-3-10-7-20-16-26-8-7-19-8-29-7l-3 1h-4a89 89 0 0 0-57-17c-22 1-43 12-58 28l-3 1-1-1c-12-3-25-2-36 2a85 85 0 0 0-35 27l6-12 1-2a105 105 0 0 1 64-43l8-1h4c1-1-1-2-2-2l-1-1-12-2Zm151 40c-5-4-11-5-17-5l1 3 1 2c5 9 6 21 5 31a91 91 0 0 1-11 35l-2 3 16-3v-1l5-4 1-2c9-11 15-25 12-39-1-7-5-15-11-20Zm-253 65c-11 9-20 21-26 34-4 10-6 21-4 32-3-11-4-22 0-32 6-15 17-25 30-34Zm-45 171 2-5-1 2a239 239 0 0 0-30 174 136 136 0 0 0 36 59c6 7 13 13 20 18l-5-5-1-3c-20-26-32-58-38-91a273 273 0 0 1 17-149Z" fill="#000000"/><path d="M495 234c28 1 56 6 84 15a201 201 0 0 1 100 65c19 25 31 55 35 86a361 361 0 0 1 2 101l-5 34-4 20c-1 2-1 2-3 2-2-4-2-8-2-12-1-15 1-29 2-44 1-24 3-48 1-72l-6-45c-7-28-20-54-40-75-18-18-40-33-63-43-22-9-44-15-67-19-18-3-36-4-54-4a277 277 0 0 0-128 29c-13 9-25 20-35 32a276 276 0 0 0-55 139c-1 24 0 47 8 70l7 15 12 1 1 3c-3 2-7 2-11 3-10 2-20 6-29 12-7 5-14 11-18 19-5 10-3 22-1 33 5 19 17 37 33 49 11 9 25 14 39 16 10 2 20 0 30-1 5 4 8 12 11 17l18 27a136 136 0 0 0 66 50c22 9 45 14 68 19l41 8 17 5v4h-12a535 535 0 0 1-67-8 255 255 0 0 1-84-33c-11-7-21-16-29-27a214 214 0 0 1-16 123c-15 27-40 48-70 57-3 1-7 2-10 1-2 0-2-1-2-3 1-3 4-5 6-6 12-8 26-14 38-23 13-11 24-23 31-38 6-15 10-32 12-49 2-13 3-26 2-40l-4-38-18-36-19 4a88 88 0 0 1-75-38 93 93 0 0 1-20-58c0-9 3-18 8-25s12-13 19-17c5-4 12-6 18-8l-9-24c-5-22-5-45-2-67a292 292 0 0 1 63-149c9-10 18-19 29-26 7-4 14-5 20-9 43-19 90-25 137-22Z" fill="#000"/><path d="M475 243a276 276 0 0 1 121 23c23 10 45 25 63 43 20 21 33 47 40 75l6 45c2 24 0 48-1 72-1 15-3 29-2 44 0 4 0 8 2 12l-1 20c-2 5-2 10-2 16-2 24-2 49-6 74-1 12-3 25-8 36-3 9-8 17-15 24-12 13-27 24-43 33-19 11-39 16-58 24-5 2-10 4-13 8 8 1 15 0 23-2-5 12-6 24-6 36 0 5-1 11 1 16 3 5 8 9 13 12l35 13c22 8 43 18 65 27 2 4 5 7 6 12 6 11 7 23 3 35-5 13-15 24-27 31-16 11-36 19-55 24a494 494 0 0 1-235-7c-20-7-40-14-58-24-14-8-29-18-40-31-6-8-11-19-12-29a122 122 0 0 0 86-107c4-24 4-49 0-73 8 11 18 20 29 27l27 14a331 331 0 0 0 124 27h12v-4l-17-5-41-8c-23-5-46-10-68-19-13-6-27-13-39-21-10-9-19-18-27-29l-18-27c-3-5-6-13-11-17-10 1-20 3-30 1-14-2-28-7-39-16a94 94 0 0 1-33-49c-2-11-4-23 1-33 4-8 11-14 18-19 9-6 19-10 29-12 4-1 8-1 11-3l-1-3-12-1-7-15c-8-23-9-46-7-70a276 276 0 0 1 54-139c10-12 22-23 35-32a277 277 0 0 1 128-30Z" fill="#ffffff"/><path d="M260 571c4 0 7 0 11 2 5 1 11 4 14 8 2 3 2 7 0 10-5 6-12 10-16 16 6 4 14 6 21 9 4 1 8 3 11 6l1 3-8-2-24-7c-4-1-8-3-9-7-1-3 1-7 3-10l15-13c-4-7-15-8-19-15ZM703 577l2 3 2 16a483 483 0 0 1-2 89c-2 11-5 23-10 33a198 198 0 0 1-106 71c-1 14-3 31-2 47l5 5c8 6 18 9 27 12a451 451 0 0 1 68 28c7 4 13 9 18 15-5 1-10-1-16-2-22-9-43-19-65-27l-35-13c-5-3-10-7-13-12-2-5-1-11-1-16 0-12 1-24 6-36-8 2-15 3-23 2 3-4 8-6 13-8 19-8 39-13 58-24 16-9 31-20 43-33 7-7 12-15 15-24 5-11 7-24 8-36 4-25 4-50 6-74 0-6 0-11 2-16Z" fill="#000"/><path d="M473 484c4-2 10-1 13 3 5 4 8 11 8 17 2 10 0 21-4 30-3 6-6 12-13 14-6 2-14-1-17-7-5-6-6-15-6-22 1-8 2-16 6-24 3-5 7-9 13-11ZM643 491c4-2 9-2 13 2 5 4 7 12 7 18 1 9-1 18-5 25-2 5-6 8-11 10-5 1-11-1-14-5-3-3-5-7-6-12-1-9 1-18 4-26 3-5 6-10 12-12Z" fill="#000000"/><g fill="#000000"><path d="M675 381c5 0 8 4 9 8-11 3-23 8-34 13l-16 8c-7 4-14 7-22 9-5 1-9 0-13 3l-7 8c-3 3-4 7-6 12-1-1-3-2-3-4-2-5 0-11 2-16 2-6 3-12 8-17 3-4 5-8 9-10 4-3 10-4 14 0l1 6 25-14c11-4 21-8 33-6ZM481 383c14 2 32 1 44 7 9 4 13 11 18 19l-1 4c-4 3-9 4-14 2-4-2-6-6-9-8-2-2-5-2-8-3l-25-2c-12-1-24-6-36-7l-27-5-5-2c9-3 19-4 29-5 11 0 23-2 34 0Z"/><path d="M540 387c6-2 12-2 16 2 6 3 9 9 11 15 0-4 2-9 5-12 6 3 11 9 13 15 1 5 2 10 0 15s-9 8-13 5c-4-4-4-12-5-18-1 4-2 8-5 10s-7 1-9-2l-5-12-7-15-1-3Z"/></g><path d="M676 575c3-2 7 0 7 4 0 3-3 4-6 4-3-1-4-6-1-8ZM366 583c2-1 5 0 7 1 2 3 2 7 0 10-3 2-6 2-9 0-3-3-2-9 2-11ZM624 584c1-1 4-1 5 1 0 2 0 4-2 4-3 1-5-3-3-5ZM649 584c5-2 10 3 8 7s-7 6-10 3-2-8 2-10ZM475 586c2-1 6 1 5 3 1 2-1 4-4 4-3-1-3-5-1-7ZM691 587c3-2 7 0 7 3 1 3-3 5-6 4-2-1-2-5-1-7ZM412 587c5 0 8 6 6 10-1 2-4 3-6 4-2-1-5-2-6-4-2-4 2-10 6-10ZM339 595c4-1 7 1 7 5-1 4-5 5-8 3-2-2-2-6 1-8ZM670 600c4-2 8 1 8 5s-5 7-8 4c-3-2-3-7 0-9ZM450 604c3 0 3 2 5 4l-2 3c-3 3-7 1-8-2 0-3 2-6 5-5ZM384 617c4 0 7 2 8 6 0 4-3 8-7 8-3 0-6-2-7-5-1-4 2-9 6-9Z" fill="#000000"/><path d="M597 505h1l3 15 3 26 8 13 6 12c2 5 2 10 5 14 3 5 5 10 5 16 0 9-6 17-14 20l-19 8c-5 3-9 5-15 5-5 0-11 0-13-5-2-2 0-4 2-5l12-3 16-5 13-5c6-2 9-8 7-14l-5-8-7-17-7-19c-4-8-6-17-5-26 0-7 1-15 4-22Z" fill="#000000"/><path d="M619 659c1 3-1 7-2 9-5 9-14 13-21 21 0 4-2 7-3 11-3 9-6 17-13 23-3 2-7 2-11 1-3 0-6-2-7-5-1-5 0-9 3-13 6-12 16-19 26-27 8-6 15-10 21-17 2-1 4-4 7-3Z" fill="#000000"/><path d="M559 212c40 10 78 29 108 56 14 11 26 25 36 40l5 8c10 9 19 19 27 29a236 236 0 0 1 49 97c1 8 2 15 1 23-1 15-3 30-9 44-2 5-5 12-10 15h-4l2-9a154 154 0 0 0 1-76c-4-17-11-33-20-48l4 12c5 21 5 45-1 67-4 20-13 38-24 56-5 5-9 12-15 16-3 2-6 1-9 2-2-2-1-4-1-6l-1-20c-2-35-14-69-31-100a318 318 0 0 0-77-88l-9-7a244 244 0 0 1 17 68c1 17 2 34 1 51-2 30-6 59-17 87-6 15-13 28-21 42-11 18-26 35-43 47-3 1-7 4-10 3l1-3 17-19c22-26 34-60 42-93 6-25 7-50 4-75l-1 6a376 376 0 0 1-44 99 227 227 0 0 1-77 71l-14 5c-2 1-6 1-7-2 1-6 5-12 7-18a267 267 0 0 0 19-45c-13 16-28 31-46 41-16 9-35 14-53 14-5 0-11-1-14-5-3-2-1-6 0-10l10-32c5-16 9-32 12-49l-16 18-19 17-1 23a756 756 0 0 0 32 212c11 30 26 57 41 85l6 12c1 2-1 4-3 3a335 335 0 0 1-61-55 433 433 0 0 1-97-326l-2-4a181 181 0 0 1-13-130c10-32 27-60 50-83 27-27 61-47 97-60 58-20 122-22 181-6Z" fill="#000000"/></g><g transform="translate(10 -60)"></g></g></svg>