<svg xmlns="http://www.w3.org/2000/svg" viewBox="0 0 980 980" fill="none" shape-rendering="auto"><desc>"Lorelei" by "Lisa Wischofsky", licensed under "CC0 1.0". / Remix of the original. - Created with dicebear.com</desc><metadata xmlns:dc="http://purl.org/dc/elements/1.1/" xmlns:cc="http://creativecommons.org/ns#" xmlns:rdf="http://www.w3.org/1999/02/22-rdf-syntax-ns#"><rdf:RDF><cc:Work><dc:title>Lorelei</dc:title><dc:creator><cc:Agent rdf:about="https://www.instagram.com/lischi_art/"><dc:title>Lisa Wischofsky</dc:title></cc:Agent></dc:creator><dc:source>https://www.figma.com/community/file/1198749693280469639</dc:source><cc:license rdf:resource="https://creativecommons.org/licenses/zero/1.0/" /></cc:Work></rdf:RDF></metadata><mask id="viewboxMask"><rect width="980" height="980" rx="0" ry="0" x="0" y="0" fill="#fff" /></mask><g mask="url(#viewboxMask)"><g transform="translate(10 -60)"><path fill-rule="evenodd" clip-rule="evenodd" d="M435 191a208 208 0 0 1 62 13c9-4 18-6 28-7a151 151 0 0 1 110 37l6 4c10 3 19 7 28 12h1l7 4c13 7 26 13 36 23a105 105 0 0 1 33 93c-2 12-7 23-13 33l1 2c8 17 16 33 18 51 1 10 1 19-2 28a55 55 0 0 1-24 27l-4 3c15 2 30 10 41 21 4 5 9 11 10 17 1 3 1 6-1 8-2 1-2 0-3-1v-1c-1-4-5-7-8-10h-1c-5-5-12-9-18-11 8 7 14 15 18 24 5 13 4 27 0 40-3 8-7 15-15 19l-2 1c-2 2-4 3-6 0v-10c1-15-3-30-13-41-9-11-22-17-35-21l-6-3-7-3c-2 0-4-1-5-4 0-5 3-10 7-13 7-6 16-10 25-10l1-4 1-1c-1-6 0-12 1-19v-2h-1c-3 1-6 1-9-1-6-2-11-6-15-11l-13-23-4-8-5-10-6-21-3-6-1-1-7-19v-1l-6-18-5-20-2-5-15-36-6-9-6-11c-1-7 3-13 7-19a333 333 0 0 1-28 15c-6 3-12 7-19 9-2 1-4-1-6-2l-5-3c-13-9-26-17-40-23 3 4 6 9 6 14-1 3-1 6-4 7l-13-1h-4c-10-2-19-2-29-1-9 19-13 40-17 60l-2 11c-4 18-9 35-15 52-8 24-21 47-38 66a132 132 0 0 1-30 25l-5 4c-9 12-21 21-34 28a123 123 0 0 0 23 77c5 7 11 14 20 17l4 1h4l-2 5v1c-4 4-8 6-13 8a71 71 0 0 1-53-17l-2-1-1 6-5 22-1 7v4c-1 24 0 48 4 72l1 5c1 8 2 16 5 23l1 4c-4-2-6-7-9-10l-7-18 1 13c2 15 3 29 1 43-1 7-2 14-5 20-1 4-4 5-8 5-8 1-16-1-23-4-12-5-23-10-33-18v1l-2 3c-1 3-5 3-8 3-5-3-9-8-13-13-17-23-27-51-24-80 3-23 9-48 23-67-15 12-27 28-34 46a158 158 0 0 0-8 95l2 5-3-2c-5-3-8-9-11-14-4-12-5-26-5-38a131 131 0 0 1 85-123l4-3c-9 0-17-4-24-10a94 94 0 0 1-26-40c-9-24-10-50-8-75a402 402 0 0 1 51-160c13-27 31-52 53-73 25-24 55-42 88-52 22-7 44-10 67-9Zm240 76c13 7 25 13 35 25 15 15 23 35 25 56 1 15-2 30-8 44l-2-3-4-8-3-14-6-33a166 166 0 0 0-40-69l3 2Zm-224 34 7-15c-14 1-27 3-41 6-8 14-15 30-20 46-5 19-7 38-8 58v7c-1 21-3 44-9 64 19-20 34-45 42-71 6-15 10-31 14-46 5-16 9-33 15-49ZM204 406h-1a303 303 0 0 0 14 146c6 18 14 36 23 53-8-1-16-7-22-12a98 98 0 0 1-27-53c-5-27-4-56 0-83 3-17 7-35 12-51h1Zm474 268c-6-6-14-8-22-7-9 1-17 4-24 10l-13 18-4 6-3 5c-6 8-10 17-13 26-5 11-7 22-5 34 2 13 10 25 20 34 3 4 8 8 13 8 13-4 24-14 33-24 6-7 11-15 15-24l1 8 2 8c1 2 2 5 5 5 2 0 4-2 5-4l1-1c8-13 12-29 12-44 0-13-4-26-11-37l-4-9-8-12Z" fill="#000000"/><path d="M486 236c57-2 115 18 159 56a209 209 0 0 1 73 190c-1 4-1 8-4 12l-1-3v-33a215 215 0 0 0-172-206 235 235 0 0 0-270 153c-12 37-14 78-6 116 6-2 12-2 17-2 2 1 5 1 6 3s0 3-1 4l-12 4c-14 3-27 8-37 18a63 63 0 0 0-22 45c0 12 3 24 8 35 8 13 19 24 33 31 18 10 41 13 62 7 2-1 4-2 6-1s3 4 4 6l15 30a215 215 0 0 0 72 63c28 15 59 21 90 26 3 1 8 1 10 4 1 2 0 3-2 4l-11 1a231 231 0 0 1-147-62c5 18 8 36 8 54 0 12-2 23-6 34-5 10-11 18-19 26a196 196 0 0 1-60 43c-1-1 1-2 2-3l17-14c13-12 25-23 35-38a93 93 0 0 0 17-65l-4-39-2-10-12-17c-5-10-11-20-13-31a93 93 0 0 1-96-31 81 81 0 0 1-19-51c0-12 3-23 8-34 9-16 23-29 40-36-8-31-8-62-3-93 8-40 26-77 51-108 45-54 115-87 186-88Z" fill="#000"/><path d="M541 252a214 214 0 0 1 172 206v33c-1 5-2 10-1 15-2 2-3 3-3 5-3 18-1 37 1 55 4 29 6 59 2 88-3 28-13 56-30 79-16 21-38 34-62 43-15 6-30 9-45 13-11 2-22 4-32 8 1 2 4 1 6 2 12 1 24-1 36-2-5 8-8 17-9 26-2 10 2 19 9 26 6 7 15 11 24 14 5 2 11 3 17 3 7 9 13 18 14 30 2 12-1 24-8 34-9 14-22 23-37 30-18 9-38 15-57 18a352 352 0 0 1-192-23c-18-10-38-23-48-42-4-7-8-16-6-24 18-10 33-23 47-38 8-8 14-16 19-26 4-11 6-22 6-34 0-18-3-36-8-54a235 235 0 0 0 147 62l11-1c2-1 3-2 2-4-2-3-7-3-10-4-31-5-62-11-90-26-18-10-36-22-50-37-8-8-16-17-22-26l-15-30c-1-2-2-5-4-6s-4 0-6 1a82 82 0 0 1-95-38c-5-11-8-23-8-35 1-17 9-34 22-45 10-10 23-15 37-18l12-4c1-1 2-2 1-4s-4-2-6-3c-5 0-11 0-17 2-8-38-6-79 6-116a236 236 0 0 1 270-153Z" fill="#ffffff"/><path d="m712 506 3 3 1 13 3 45c3 20 5 40 5 60 0 16-1 32-5 47-6 28-20 56-40 76a174 174 0 0 1-88 46c-1 9-4 16-4 25-1 6 2 10 5 15 8 8 18 14 28 19l18 9c-3 3-8 1-12 2-6 0-12-1-17-3-9-3-18-7-24-14-7-7-11-16-9-26 1-9 4-18 9-26-12 1-24 3-36 2-2-1-5 0-6-2 10-4 21-6 32-8 15-4 30-7 45-13 24-9 46-22 62-43 17-23 27-51 30-79 4-29 2-59-2-88-2-18-4-37-1-55 0-2 1-3 3-5ZM262 566c6 0 12 1 15 6 2 3 2 7 1 10-3 8-9 14-11 22-1 4 0 7 3 9 7 5 16 7 24 10l-2 2h-11c-6-1-12-2-17-5-5-4-9-11-7-18 2-9 9-15 12-23-7-4-14-2-20-8 3-4 8-6 13-5Z" fill="#000"/><path d="M681 473c6 2 13 7 15 14 2 4 1 9-3 12-5 2-10 0-12-4-3-3-7-7-12-8-4-1-9 0-13 2l4 5c4 6 5 14 5 21s-2 14-4 20c3-1 6-4 10-4 0 4 0 7-2 10-5 6-13 10-21 11s-17 2-24-3c-5-3-5-8-5-13l-2-6c0-10 4-19 9-27 7-11 17-20 29-26 8-4 17-6 26-4ZM473 519c14 2 28 6 42 11 3 1 6 1 8 4 4 3 4 9 0 12-3 2-7 2-11 2h-45c-13 0-28 1-41-1l-7-3-14 2c-2 0-5 0-6-2-3-2-2-6 0-8s6-3 9-4c9-2 18-4 27-4l9-1-16-1c-6-1-13 0-19-2-2 0-3-1-3-3s2-2 3-3l15-2c16-1 33 0 49 3Z" fill="#000000"/><path d="M467 377c15 1 32 5 44 15 4 3 8 7 9 11 1 3 1 5-2 6-3 0-6-3-8-5-11-8-24-13-38-13-8 0-15 2-23 4-15 3-29 11-38 23-3 3-5 7-10 8s-10-3-10-8c-1-4 2-8 4-11 12-15 30-25 49-29 7-2 15-2 23-1ZM672 387c5 2 10 7 13 11 3 3 5 7 5 11 0 6-6 10-12 8-5-2-6-7-10-11-4-3-9-7-13-8-12-4-24 1-32 9l-9 9c0-7 4-13 9-17 12-13 32-18 49-12Z" fill="#000000"/><path d="M676 575c3-2 7 0 7 4 0 3-3 4-6 4-3-1-4-6-1-8ZM366 583c2-1 5 0 7 1 2 3 2 7 0 10-3 2-6 2-9 0-3-3-2-9 2-11ZM624 584c1-1 4-1 5 1 0 2 0 4-2 4-3 1-5-3-3-5ZM649 584c5-2 10 3 8 7s-7 6-10 3-2-8 2-10ZM475 586c2-1 6 1 5 3 1 2-1 4-4 4-3-1-3-5-1-7ZM691 587c3-2 7 0 7 3 1 3-3 5-6 4-2-1-2-5-1-7ZM412 587c5 0 8 6 6 10-1 2-4 3-6 4-2-1-5-2-6-4-2-4 2-10 6-10ZM339 595c4-1 7 1 7 5-1 4-5 5-8 3-2-2-2-6 1-8ZM670 600c4-2 8 1 8 5s-5 7-8 4c-3-2-3-7 0-9ZM450 604c3 0 3 2 5 4l-2 3c-3 3-7 1-8-2 0-3 2-6 5-5ZM384 617c4 0 7 2 8 6 0 4-3 8-7 8-3 0-6-2-7-5-1-4 2-9 6-9Z" fill="#000000"/><path d="M597 505h1l3 15 3 26 8 13 6 12c2 5 2 10 5 14 3 5 5 10 5 16 0 9-6 17-14 20l-19 8c-5 3-9 5-15 5-5 0-11 0-13-5-2-2 0-4 2-5l12-3 16-5 13-5c6-2 9-8 7-14l-5-8-7-17-7-19c-4-8-6-17-5-26 0-7 1-15 4-22Z" fill="#000000"/><path d="M599 665c5 0 10 3 13 7 3 6 4 13 5 20 1 11-1 23-6 33-5 9-13 13-22 15-11 3-23 3-34 3-4 0-9-1-13-3 7-3 13-3 20-4l21-3c6-1 14-4 18-9s6-12 7-19l-4 6c-4 3-9 3-14 4l-26 4c-7 1-15 3-23 0l-11 23c-3 1-3-2-3-4 0-7 3-14 6-20 7-17 21-32 36-42 9-6 19-11 30-11Z" fill="#000000"/><path fill-rule="evenodd" clip-rule="evenodd" d="M468 196a218 218 0 0 0-234 122 323 323 0 0 0-25 186l4 19c1 3 3 6 5 6l4 1h1c5 6 12 10 20 12 12 4 26 4 38 2-3 16 1 34 7 49 5 12 13 25 23 34a67 67 0 0 0 51 14c5-1 9-4 13-8v-1l2-5h-3c-3 0-5 0-8-2-11-6-19-17-25-28-10-20-15-43-15-65 13-6 24-16 33-27l7-5 4-2c9-6 17-14 25-22 17-20 30-43 39-67a443 443 0 0 0 16-63c4-20 8-41 17-60a185 185 0 0 1 34 1l12 1c3-1 4-4 4-7 0-5-3-10-6-14a272 272 0 0 1 45 26c2 2 5 3 7 2a172 172 0 0 0 26-13l6-4 14-7c-3 5-7 12-7 18 0 3 3 5 6 5 11 1 21-1 32-4l4-1c4-1 8 2 11 4 9 9 15 22 16 34a118 118 0 0 1 0 35l-1 11-1 15-2 37c2 16 8 32 20 43 9 9 22 12 34 9 6-2 12-6 16-10 5-4 7-9 7-16l-11 4-14 4v-8c4-3 8-7 10-11l-2-9-1-7-3-23-3-25-1-7c-2-14-4-27-9-41a162 162 0 0 0-42-68c-6-4-11-7-18-9a136 136 0 0 0-39-36c-17-8-34-14-52-17-15-2-32-3-46 1l-16 5c-9-4-19-6-29-8Zm-20 115c3-8 5-17 10-25-14 1-27 3-41 6-7 13-14 27-18 41a232 232 0 0 0-10 71c-2 21-3 43-9 63 19-20 34-45 42-71 6-15 10-30 14-46 4-13 7-26 12-38v-1Z" fill="#000000"/></g><g transform="translate(10 -60)"></g></g></svg>