<svg xmlns="http://www.w3.org/2000/svg" viewBox="0 0 980 980" fill="none" shape-rendering="auto"><desc>"Lorelei" by "Lisa Wischofsky", licensed under "CC0 1.0". / Remix of the original. - Created with dicebear.com</desc><metadata xmlns:dc="http://purl.org/dc/elements/1.1/" xmlns:cc="http://creativecommons.org/ns#" xmlns:rdf="http://www.w3.org/1999/02/22-rdf-syntax-ns#"><rdf:RDF><cc:Work><dc:title>Lorelei</dc:title><dc:creator><cc:Agent rdf:about="https://www.instagram.com/lischi_art/"><dc:title>Lisa Wischofsky</dc:title></cc:Agent></dc:creator><dc:source>https://www.figma.com/community/file/1198749693280469639</dc:source><cc:license rdf:resource="https://creativecommons.org/licenses/zero/1.0/" /></cc:Work></rdf:RDF></metadata><mask id="viewboxMask"><rect width="980" height="980" rx="0" ry="0" x="0" y="0" fill="#fff" /></mask><g mask="url(#viewboxMask)"><g transform="translate(10 -60)"><path d="M528 244c41 6 80 22 113 47 28 21 50 49 65 81 13 28 20 60 19 91-1 15-3 30-8 44h-2l1-21c1-30-2-59-13-87-10-30-28-57-50-79-42-40-98-62-156-63a243 243 0 0 0-196 94 207 207 0 0 0-40 139l2 25c8 0 19 0 25 7l-3 3-17 1c-12 1-24 5-33 13a64 64 0 0 0-17 39c-5 32 12 65 39 83 16 10 36 15 55 9 4-2 9-5 14-3 3 1 4 4 5 7a251 251 0 0 0 90 100c8 7 18 13 28 18 18 8 38 14 57 19l32 8c5 1 9 1 13 3l-4 1c-25 2-48-3-72-10-12-3-23-7-34-12a306 306 0 0 1-84-63l2 28c1 17 0 35-6 52-4 12-11 24-19 34-10 10-22 19-34 26-10 7-21 14-32 18l-16 5 9-9 31-20 22-17a95 95 0 0 0 32-56c2-14 2-28 2-43v-27c-10-14-22-29-27-46-17 8-38 7-55-1-17-7-32-19-43-33-12-17-19-36-21-56s2-40 15-56c9-10 22-18 35-21-4-14-6-29-6-44a234 234 0 0 1 83-173 249 249 0 0 1 199-55Z" fill="#000"/><path d="M653 320c22 22 40 49 50 79 11 28 14 57 13 87l-1 21-5 15-2 13 2 56c0 21 1 42-1 63l-3 47c-2 16-7 31-14 45-11 18-26 33-44 44-13 8-27 12-41 16l-38 11-17 3c0 1 1 2 3 2 8 5 17 5 26 4-3 7-4 14-2 22 3 7 11 11 17 14 12 6 24 7 36 9 7 6 14 14 16 24 2 8 2 16-2 23-5 10-14 18-24 23-13 8-27 14-42 18a468 468 0 0 1-222-1c-17-4-33-9-48-17-12-6-23-13-32-22-5-7-9-14-10-23 11-4 22-11 32-18 12-7 24-16 34-26 8-10 15-22 19-34 6-17 7-35 6-52l-2-28 22 23c19 15 40 30 62 40 11 5 22 9 34 12 24 7 47 12 72 10l4-1c-4-2-8-2-13-3l-32-8c-19-5-39-11-57-19l-29-17c-11-9-23-17-33-27a251 251 0 0 1-56-74c-1-3-2-6-5-7-5-2-10 1-14 3-19 6-39 1-55-9a88 88 0 0 1-39-83c1-14 7-28 17-39 9-8 21-12 33-13l17-1 3-3c-6-7-17-7-25-7l-2-25a207 207 0 0 1 40-139 243 243 0 0 1 196-94c58 1 114 23 156 63Z" fill="#ffffff"/><path d="M710 522c3 0 3 4 4 6 3 11 4 23 5 34l2 21c1 22 2 43 1 65-1 21-1 44-5 65a136 136 0 0 1-80 99c-15 7-31 11-48 13v15c1 3 3 4 5 6 12 6 23 8 36 11 12 3 24 5 36 11-3 3-7 4-11 4-7 1-15-1-23-1-12-2-24-3-36-9-6-3-14-7-17-14-2-8-1-15 2-22-9 1-18 1-26-4-2 0-3-1-3-2l17-3 38-11c14-4 28-8 41-16 18-11 33-26 44-44 7-14 12-29 14-45l3-47c2-21 1-42 1-63l-2-56 2-13ZM252 549c8 0 17 1 23 7 5 4 10 9 12 15 1 3 0 6-2 8l-13 8c-7 6-7 19 0 25 6 5 14 8 21 11 2 0 5 1 6 3-1 2-3 3-5 3-10 0-20-3-28-9-5-3-8-8-9-13-2-8-2-17 4-24 4-6 11-9 18-12-4-5-7-11-14-13-7-3-15-3-22-5l9-4Z" fill="#000"/><path d="M679 466c8 3 13 11 15 19 1 5 2 11 1 17 0 3-1 7-4 9-4 2-8 1-10-3-3-4-2-10-3-15s-4-11-9-13c-8-2-13 1-19 5 4 8 4 16 3 24 0 8-1 15-4 23l-4 9c-1 4-4 7-8 8s-8-2-10-5c-3-4-5-9-5-14-2 4-3 9-6 12-3-2-3-7-4-10 0-13 6-27 13-38s17-22 29-27c8-4 17-5 25-1ZM482 474c18 8 33 24 39 44 2 6 4 13 2 19-1 2-2 3-4 2-3-3-5-8-7-12-8-14-18-28-33-36-10-6-22-8-34-5l5 10c3 6 3 12 3 18 0 8-1 15-3 23-2 6-6 12-10 17-3 3-6 5-10 5-5 0-9-2-12-6-5-8-6-18-6-27 0-7 2-14 4-21l-6 8c-3 4-10 4-13 0-3-3-3-8-1-12 8-12 19-22 32-28 17-7 37-7 54 1Z" fill="#000000"/><path d="M479 386c16 1 33 7 46 17 3 3 7 5 8 9 1 2-1 5-3 4-8-1-15-5-23-7-7-3-15-5-23-5-7-1-15 0-22 1-15 2-30 9-43 16l-21 9-1-1c1-4 3-9 6-12 6-10 17-16 27-21 15-7 32-11 49-10ZM673 390c5 2 11 5 15 10 4 4 5 9 4 15l-23-7c-7-2-13-1-20-2-7 0-15 1-21 5l-13 8h-3c-1-3 0-6 2-8 5-9 13-15 22-18 12-4 24-6 37-3Z" fill="#000000"/><path d="M594 572a37 37 0 0 1 19 29c0 9-5 18-13 22l-17 7c-4 1-6 2-9 0-2-3-1-4 1-6 6-5 15-7 21-12 3-2 5-5 5-9 0-10-5-17-7-26v-5Z" fill="#000000"/><path fill-rule="evenodd" clip-rule="evenodd" d="M654 667c2-4 0-9-4-10-8-2-16-1-24-1l-57 6a445 445 0 0 1-56 5l-21 1a255 255 0 0 1-34-1c-4-1-8-1-12 1h1c0 2 1 3 3 3 8 3 16 4 25 5 1 4 3 7 7 9l11 7a503 503 0 0 1 5 3l23 10a175 175 0 0 0 31 8c7 2 14 3 22 2l21-5c6-2 12-5 17-9a129 129 0 0 0 26-23l8-8c3 0 6 0 8-3Zm-30 9 8-9a207 207 0 0 0-78 4l-4 1c-22 3-45 6-67 5l5 2 20 8c17 8 35 13 53 17 15 2 30-2 43-8 8-5 14-12 20-20Z" fill="#000000"/><path d="M473 221a404 404 0 0 1 84 9c11 3 21 5 31 9l35 13c10 3 19 9 29 13l16 6 29 6c5 2 9 5 11 10 3 6 2 12 0 18l10 5c5 5 7 12 5 19-2 4-6 7-10 9a99 99 0 0 1-69 8l-44-10-62-17a239 239 0 0 0-163 3l-4 14c-4 16-7 32-8 48v17l-1 8c-3 7-9 14-13 21-12 18-23 37-32 56l-2 14v39c0 5 2 9-1 13-15-2-30-6-46-10-2 0-5 0-7-2l-7-9c-4-3-5-9-7-14-7-21-9-45-9-68 0-28 5-55 10-82 4-15 10-29 17-42 10-20 24-37 40-52 16-16 35-27 56-35a298 298 0 0 1 112-17ZM288 552c10 0 20 3 29 5 4 1 9 3 12 6 3 2 2 6-1 7-9 3-16 0-24-2-6-2-14-4-20-8-2-1-5-4-3-6s5-2 7-2ZM725 669c1 2 1 3-1 5l1-5Z" fill="#000000"/></g><g transform="translate(10 -60)"></g></g></svg>