<svg xmlns="http://www.w3.org/2000/svg" viewBox="0 0 980 980" fill="none" shape-rendering="auto"><desc>"Lorelei" by "Lisa Wischofsky", licensed under "CC0 1.0". / Remix of the original. - Created with dicebear.com</desc><metadata xmlns:dc="http://purl.org/dc/elements/1.1/" xmlns:cc="http://creativecommons.org/ns#" xmlns:rdf="http://www.w3.org/1999/02/22-rdf-syntax-ns#"><rdf:RDF><cc:Work><dc:title>Lorelei</dc:title><dc:creator><cc:Agent rdf:about="https://www.instagram.com/lischi_art/"><dc:title>Lisa Wischofsky</dc:title></cc:Agent></dc:creator><dc:source>https://www.figma.com/community/file/1198749693280469639</dc:source><cc:license rdf:resource="https://creativecommons.org/licenses/zero/1.0/" /></cc:Work></rdf:RDF></metadata><mask id="viewboxMask"><rect width="980" height="980" rx="0" ry="0" x="0" y="0" fill="#fff" /></mask><g mask="url(#viewboxMask)"><g transform="translate(10 -60)"><path fill-rule="evenodd" clip-rule="evenodd" d="m448 193 15 2 9 2c9 1 17 3 25 7 8-4 18-6 27-7a148 148 0 0 1 77 14 125 125 0 0 1 45 33l19 4c11 4 22 9 32 16 10 9 18 20 24 32l6 17 1 4v2a232 232 0 0 0 34 70c7 10 14 21 19 32 6 12 11 25 9 39-1 13-6 25-16 34l-3 15c-4 11-10 23-20 31 3 6 6 12 7 19 2 15 0 31-7 45-2 3-4 4-7 5l-1-8-1-5c-2-14-11-27-21-37a47 47 0 0 1-9 45c-7 9-18 16-28 22-5 2-10 4-15 2l-2-3c-1-2-3-3-3-5-2-7-2-15-2-23v-6c0-16 2-31 4-47-10-4-18-12-24-21-9-12-12-26-13-41-2-30 6-60 25-84l-6-5-4-4c-18-15-26-35-32-57-3-12-4-26 0-37-4 0-9-1-10-5-1-7 3-14 7-19l-13 7-5 2-10 6c-6 3-12 7-19 9-2 1-4-1-6-2l-5-3c-13-9-26-17-40-23 3 4 6 9 6 14-1 3-1 6-4 7l-13-1-5-1h-28c-8 19-12 38-16 58a532 532 0 0 1-29 91c-8 17-19 32-32 46-8 8-16 14-25 20 18 11 30 28 39 46 17 33 29 68 31 105 1 19-3 38-11 55-5 13-16 24-29 30-8 4-18 5-27 5-8-1-15-4-21-8a76 76 0 0 0-40 7l-1 1c-4 3-8 5-11 10-5 6-8 13-10 21v1c0 2 0 3-2 3-3-5-4-11-4-17 0-9 5-17 9-25l12-11c-5-2-10-5-14-9a69 69 0 0 1-22-38c-5 1-10 2-15 1-16-1-31-8-42-19-6-6-12-14-16-22l-3-3-2-1-14-17c-9-15-14-33-13-51s6-36 16-51l11-11c-7-13-12-28-12-43v-12a101 101 0 0 1 27-123c10-9 22-17 35-18 14-22 30-43 49-60a235 235 0 0 1 96-49c22-6 44-7 67-5Zm224 72c13 7 25 16 32 29 5 11 7 22 10 33l5 20a175 175 0 0 0 27 50c8 12 16 24 22 36 4 10 6 21 4 32l-7-22c-6-15-14-27-22-41l-1-2-9-12-1-1-6-10-7-10-1-6-1-2a168 168 0 0 0-45-94Zm-224 46 10-25c-14 1-27 3-41 6-8 15-15 29-20 46-6 23-7 47-9 70v6c-1 18-3 36-8 53a201 201 0 0 0 47-86l10-32 10-36 1-2Zm-218 7-11 29v1l-1 3c-18 18-31 44-38 69a90 90 0 0 1 27-86c7-6 15-12 23-16Zm-52 220c3-10 8-19 15-27l-9 9a88 88 0 0 0-6 84l-3-27c-1-13-1-26 3-39Z" fill="#000000"/><path d="M495 234c28 1 56 6 84 15a201 201 0 0 1 100 65c19 25 31 55 35 86a361 361 0 0 1 2 101l-5 34-4 20c-1 2-1 2-3 2-2-4-2-8-2-12-1-15 1-29 2-44 1-24 3-48 1-72l-6-45c-7-28-20-54-40-75-18-18-40-33-63-43-22-9-44-15-67-19-18-3-36-4-54-4a277 277 0 0 0-128 29c-13 9-25 20-35 32a276 276 0 0 0-55 139c-1 24 0 47 8 70l7 15 12 1 1 3c-3 2-7 2-11 3-10 2-20 6-29 12-7 5-14 11-18 19-5 10-3 22-1 33 5 19 17 37 33 49 11 9 25 14 39 16 10 2 20 0 30-1 5 4 8 12 11 17l18 27a136 136 0 0 0 66 50c22 9 45 14 68 19l41 8 17 5v4h-12a535 535 0 0 1-67-8 255 255 0 0 1-84-33c-11-7-21-16-29-27a214 214 0 0 1-16 123c-15 27-40 48-70 57-3 1-7 2-10 1-2 0-2-1-2-3 1-3 4-5 6-6 12-8 26-14 38-23 13-11 24-23 31-38 6-15 10-32 12-49 2-13 3-26 2-40l-4-38-18-36-19 4a88 88 0 0 1-75-38 93 93 0 0 1-20-58c0-9 3-18 8-25s12-13 19-17c5-4 12-6 18-8l-9-24c-5-22-5-45-2-67a292 292 0 0 1 63-149c9-10 18-19 29-26 7-4 14-5 20-9 43-19 90-25 137-22Z" fill="#000"/><path d="M475 243a276 276 0 0 1 121 23c23 10 45 25 63 43 20 21 33 47 40 75l6 45c2 24 0 48-1 72-1 15-3 29-2 44 0 4 0 8 2 12l-1 20c-2 5-2 10-2 16-2 24-2 49-6 74-1 12-3 25-8 36-3 9-8 17-15 24-12 13-27 24-43 33-19 11-39 16-58 24-5 2-10 4-13 8 8 1 15 0 23-2-5 12-6 24-6 36 0 5-1 11 1 16 3 5 8 9 13 12l35 13c22 8 43 18 65 27 2 4 5 7 6 12 6 11 7 23 3 35-5 13-15 24-27 31-16 11-36 19-55 24a494 494 0 0 1-235-7c-20-7-40-14-58-24-14-8-29-18-40-31-6-8-11-19-12-29a122 122 0 0 0 86-107c4-24 4-49 0-73 8 11 18 20 29 27l27 14a331 331 0 0 0 124 27h12v-4l-17-5-41-8c-23-5-46-10-68-19-13-6-27-13-39-21-10-9-19-18-27-29l-18-27c-3-5-6-13-11-17-10 1-20 3-30 1-14-2-28-7-39-16a94 94 0 0 1-33-49c-2-11-4-23 1-33 4-8 11-14 18-19 9-6 19-10 29-12 4-1 8-1 11-3l-1-3-12-1-7-15c-8-23-9-46-7-70a276 276 0 0 1 54-139c10-12 22-23 35-32a277 277 0 0 1 128-30Z" fill="#ffffff"/><path d="M260 571c4 0 7 0 11 2 5 1 11 4 14 8 2 3 2 7 0 10-5 6-12 10-16 16 6 4 14 6 21 9 4 1 8 3 11 6l1 3-8-2-24-7c-4-1-8-3-9-7-1-3 1-7 3-10l15-13c-4-7-15-8-19-15ZM703 577l2 3 2 16a483 483 0 0 1-2 89c-2 11-5 23-10 33a198 198 0 0 1-106 71c-1 14-3 31-2 47l5 5c8 6 18 9 27 12a451 451 0 0 1 68 28c7 4 13 9 18 15-5 1-10-1-16-2-22-9-43-19-65-27l-35-13c-5-3-10-7-13-12-2-5-1-11-1-16 0-12 1-24 6-36-8 2-15 3-23 2 3-4 8-6 13-8 19-8 39-13 58-24 16-9 31-20 43-33 7-7 12-15 15-24 5-11 7-24 8-36 4-25 4-50 6-74 0-6 0-11 2-16Z" fill="#000"/><path d="M642 509c6-1 10 2 13 7 3 7 3 17-1 24-3 5-10 8-16 5-5-3-6-8-7-13-1-4 0-10 2-14s5-8 9-9ZM494 514c6-3 11-1 15 3 5 6 6 15 2 22-2 5-8 11-14 11-5 0-9-4-12-8-3-7-2-14 1-21 2-3 5-6 8-7Z" fill="#000000"/><path d="M494 368c5 0 9 3 11 7 8 8 15 18 20 28 2 5 4 10 3 15-1 2-2 4-4 3l-5-6c-4-8-10-15-16-22 0 4 1 10-1 13-1 4-4 6-8 6-5 0-10-4-14-7l-13-5c-2 1-4 3-6 2l-11-2-20-2-18 2c3-4 8-6 13-8 10-5 21-5 32-4 3 1 6-2 10-1 10 0 17 4 25 10l-4-19c-1-4 1-9 6-10ZM637 383c3 1 5 2 5 5 0 4-3 8-5 13 4-2 7-5 11-5 3 1 4 3 6 6 5-2 12-4 18-2 3 1 4 3 5 5-3 3-6 5-10 6-5 2-11 4-16 4-3 0-5-2-7-3l-10 6c-3 0-6-1-7-4l-1-8-8 15-4 6c-2 0-3 0-4-2-2-3 1-8 2-11 3-8 8-16 14-23 3-3 6-7 11-8Z" fill="#000000"/><path d="M293 643c3-2 7-1 9 1 3 2 4 6 3 10-2 4-7 7-12 5-3-1-5-5-4-8 0-4 1-7 4-8Z" fill="#000000"/><path d="M607 606c0 3-2 6-4 9-4 6-11 10-18 12-5 1-9-2-13 0-4 0-8 1-12-1-2-1-2-4 0-6 3-4 8-7 12-7 4-1 7-1 10 2l1 7c5-2 7-5 11-8l13-8Z" fill="#000000"/><path d="M608 667c2 0 4 0 5 2l-1 15c5-1 10-4 16-2 0 4-4 7-7 9l-35 12c-17 4-34 7-51 8-7 1-15-1-22-3-2-1-4-1-4-4 4-2 9 0 12-1 2-5 7-7 11-10l31-19c3-1 7-4 10-4 4-1 7 4 11 4 8-2 16-7 24-7ZM607 712c1 4 1 8-1 11-2 5-7 9-12 11-6 2-12 3-18 2-2 0-6-2-6-5 1-2 5-2 7-3 8-4 18-7 25-13 2-1 3-3 5-3Z" fill="#000000"/><path fill-rule="evenodd" clip-rule="evenodd" d="M468 196a218 218 0 0 0-234 122 323 323 0 0 0-25 186l4 19c1 3 3 6 5 6l4 1h1c5 6 12 10 20 12 12 4 26 4 38 2-3 16 1 34 7 49 5 12 13 25 23 34a67 67 0 0 0 51 14c5-1 9-4 13-8v-1l2-5h-3c-3 0-5 0-8-2-11-6-19-17-25-28-10-20-15-43-15-65 13-6 24-16 33-27l7-5 4-2c9-6 17-14 25-22 17-20 30-43 39-67a443 443 0 0 0 16-63c4-20 8-41 17-60a185 185 0 0 1 34 1l12 1c3-1 4-4 4-7 0-5-3-10-6-14a272 272 0 0 1 45 26c2 2 5 3 7 2a172 172 0 0 0 26-13l6-4 14-7c-3 5-7 12-7 18 0 3 3 5 6 5 11 1 21-1 32-4l4-1c4-1 8 2 11 4 9 9 15 22 16 34a118 118 0 0 1 0 35l-1 11-1 15-2 37c2 16 8 32 20 43 9 9 22 12 34 9 6-2 12-6 16-10 5-4 7-9 7-16l-11 4-14 4v-8c4-3 8-7 10-11l-2-9-1-7-3-23-3-25-1-7c-2-14-4-27-9-41a162 162 0 0 0-42-68c-6-4-11-7-18-9a136 136 0 0 0-39-36c-17-8-34-14-52-17-15-2-32-3-46 1l-16 5c-9-4-19-6-29-8Zm-20 115c3-8 5-17 10-25-14 1-27 3-41 6-7 13-14 27-18 41a232 232 0 0 0-10 71c-2 21-3 43-9 63 19-20 34-45 42-71 6-15 10-30 14-46 4-13 7-26 12-38v-1Z" fill="#000000"/></g><g transform="translate(10 -60)"></g></g></svg>