<svg xmlns="http://www.w3.org/2000/svg" viewBox="0 0 980 980" fill="none" shape-rendering="auto"><desc>"Lorelei" by "Lisa Wischofsky", licensed under "CC0 1.0". / Remix of the original. - Created with dicebear.com</desc><metadata xmlns:dc="http://purl.org/dc/elements/1.1/" xmlns:cc="http://creativecommons.org/ns#" xmlns:rdf="http://www.w3.org/1999/02/22-rdf-syntax-ns#"><rdf:RDF><cc:Work><dc:title>Lorelei</dc:title><dc:creator><cc:Agent rdf:about="https://www.instagram.com/lischi_art/"><dc:title>Lisa Wischofsky</dc:title></cc:Agent></dc:creator><dc:source>https://www.figma.com/community/file/1198749693280469639</dc:source><cc:license rdf:resource="https://creativecommons.org/licenses/zero/1.0/" /></cc:Work></rdf:RDF></metadata><mask id="viewboxMask"><rect width="980" height="980" rx="0" ry="0" x="0" y="0" fill="#fff" /></mask><g mask="url(#viewboxMask)"><g transform="translate(10 -60)"><path d="M612 96c15-1 29 1 42 9 11 7 20 18 23 31 3 14 1 27-3 40-4 11-8 22-15 32l26-4c20-1 40 1 58 11 21 12 42 30 51 52 6 14 7 30 1 44s-17 26-30 35c4 12 5 25 2 38-3 14-8 30-19 41a93 93 0 0 1-52 22c-7 1-16 2-23 1-11-2-21-5-29-13l-17-22-6-21c-13-2-24-8-35-15a54 54 0 0 1-39 21c-13 0-26-5-37-10-15-8-28-19-40-31l-9 15c-16 26-39 47-66 60-19 10-39 15-60 13 6 11 7 24 6 36-1 10-6 19-14 26-6 5-14 7-21 9-2 8-5 16-10 23-8 10-21 16-34 17-12 0-23-4-33-10-12-9-22-22-26-36-2-10-2-20 1-29-15-1-30-6-40-17-6-6-10-14-13-22-4-15-2-30 2-45 9-27 28-51 52-67 9-6 18-11 29-14-6-8-10-17-8-27 1-14 10-26 20-35 13-13 30-20 48-23 14-3 30-3 43 2 0-6 1-10 3-16 4-13 12-25 21-36 15-17 32-32 52-42 5-3 10-5 16-6 10-2 22 0 31 6 6 5 11 12 14 19a194 194 0 0 1 138-62ZM323 618c15 5 25 20 27 35 1 8-2 16-7 23 6 0 12 2 17 6 5 5 8 13 9 20s-2 15-7 20c2 3 3 6 1 9-5 5-13 7-20 4-9-3-16-11-20-20-10 4-20 4-31 4l-14-4c-7-3-13-10-16-17-4-10-6-21-4-32 2-14 9-27 20-37 11-11 30-17 45-11Z" fill="#000000"/><path d="M486 236c57-2 115 18 159 56a209 209 0 0 1 73 190c-1 4-1 8-4 12l-1-3v-33a215 215 0 0 0-172-206 235 235 0 0 0-270 153c-12 37-14 78-6 116 6-2 12-2 17-2 2 1 5 1 6 3s0 3-1 4l-12 4c-14 3-27 8-37 18a63 63 0 0 0-22 45c0 12 3 24 8 35 8 13 19 24 33 31 18 10 41 13 62 7 2-1 4-2 6-1s3 4 4 6l15 30a215 215 0 0 0 72 63c28 15 59 21 90 26 3 1 8 1 10 4 1 2 0 3-2 4l-11 1a231 231 0 0 1-147-62c5 18 8 36 8 54 0 12-2 23-6 34-5 10-11 18-19 26a196 196 0 0 1-60 43c-1-1 1-2 2-3l17-14c13-12 25-23 35-38a93 93 0 0 0 17-65l-4-39-2-10-12-17c-5-10-11-20-13-31a93 93 0 0 1-96-31 81 81 0 0 1-19-51c0-12 3-23 8-34 9-16 23-29 40-36-8-31-8-62-3-93 8-40 26-77 51-108 45-54 115-87 186-88Z" fill="#000"/><path d="M541 252a214 214 0 0 1 172 206v33c-1 5-2 10-1 15-2 2-3 3-3 5-3 18-1 37 1 55 4 29 6 59 2 88-3 28-13 56-30 79-16 21-38 34-62 43-15 6-30 9-45 13-11 2-22 4-32 8 1 2 4 1 6 2 12 1 24-1 36-2-5 8-8 17-9 26-2 10 2 19 9 26 6 7 15 11 24 14 5 2 11 3 17 3 7 9 13 18 14 30 2 12-1 24-8 34-9 14-22 23-37 30-18 9-38 15-57 18a352 352 0 0 1-192-23c-18-10-38-23-48-42-4-7-8-16-6-24 18-10 33-23 47-38 8-8 14-16 19-26 4-11 6-22 6-34 0-18-3-36-8-54a235 235 0 0 0 147 62l11-1c2-1 3-2 2-4-2-3-7-3-10-4-31-5-62-11-90-26-18-10-36-22-50-37-8-8-16-17-22-26l-15-30c-1-2-2-5-4-6s-4 0-6 1a82 82 0 0 1-95-38c-5-11-8-23-8-35 1-17 9-34 22-45 10-10 23-15 37-18l12-4c1-1 2-2 1-4s-4-2-6-3c-5 0-11 0-17 2-8-38-6-79 6-116a236 236 0 0 1 270-153Z" fill="#ffffff"/><path d="m712 506 3 3 1 13 3 45c3 20 5 40 5 60 0 16-1 32-5 47-6 28-20 56-40 76a174 174 0 0 1-88 46c-1 9-4 16-4 25-1 6 2 10 5 15 8 8 18 14 28 19l18 9c-3 3-8 1-12 2-6 0-12-1-17-3-9-3-18-7-24-14-7-7-11-16-9-26 1-9 4-18 9-26-12 1-24 3-36 2-2-1-5 0-6-2 10-4 21-6 32-8 15-4 30-7 45-13 24-9 46-22 62-43 17-23 27-51 30-79 4-29 2-59-2-88-2-18-4-37-1-55 0-2 1-3 3-5ZM262 566c6 0 12 1 15 6 2 3 2 7 1 10-3 8-9 14-11 22-1 4 0 7 3 9 7 5 16 7 24 10l-2 2h-11c-6-1-12-2-17-5-5-4-9-11-7-18 2-9 9-15 12-23-7-4-14-2-20-8 3-4 8-6 13-5Z" fill="#000"/><g fill="#000000"><path d="M669 473c8-1 16 1 22 6 3 3 6 7 6 12s-5 9-10 8c-6-1-7-6-11-9-3-2-6-3-10-3 7 10 7 23 3 34-2 9-8 16-16 19-7 3-14 0-18-5-5-5-7-13-7-20l-7 15c-1 2 0 4-3 5-2-6-1-11 1-17 6-16 17-30 32-38 5-4 11-6 18-7ZM457 484c26 1 51 17 63 40 2 2 4 6 3 9 0 2-1 2-3 1-3-2-4-5-6-8l-12-13c2 11 0 23-7 32-6 7-16 11-25 10-13-2-25-13-27-26-3-10 0-21 6-30-14 3-27 9-39 18-2 1-2 4-1 6l8 11c11 10 24 17 37 21l11 4c-5 3-12 3-18 2-13-3-25-10-34-19-6-5-11-12-14-19-1-4-4-6-4-10 0-5 5-9 9-12 15-12 34-18 53-17Z"/><path d="M670 530c2 4 0 9-2 12-5 5-12 9-19 10-8 1-17 2-25-2-1-1-4-3-2-5h7c11 1 22-3 31-8l10-7Z"/></g><path d="M503 394c7 0 14 2 19 6 4 2 7 4 8 8 1 2 0 5-2 6-5 1-10-2-14-3l-9-1c-13-1-26 1-39 4a169 169 0 0 0-60 31c-4 2-9 5-14 4-3 0-3-4-2-7 1-6 7-11 12-16 10-9 23-15 35-20 20-9 44-14 66-12ZM659 396c7-2 14-1 20 3 4 3 8 6 9 11 1 3 1 6-2 7s-7 1-10-1c-5-3-9-6-15-6-5 0-10 1-14 3-8 4-16 11-20 19l-6 9h-3v-6c2-8 7-16 13-22 7-8 17-15 28-17Z" fill="#000000"/><path d="M607 606c0 3-2 6-4 9-4 6-11 10-18 12-5 1-9-2-13 0-4 0-8 1-12-1-2-1-2-4 0-6 3-4 8-7 12-7 4-1 7-1 10 2l1 7c5-2 7-5 11-8l13-8Z" fill="#000000"/><path d="M587 747c7-1 14 0 20 2-3 3-9 4-13 5l-43 11c-2 1-5 2-6 0-1-3 1-5 3-6 5-4 12-7 19-8l20-4Z" fill="#000000"/><path d="M612 96c15-1 31 2 44 10 10 7 18 18 21 31 3 14 1 27-3 40-4 11-9 21-15 31 12-2 25-4 37-4s23 1 34 5c12 4 24 12 34 20 12 10 23 23 30 37 5 12 7 26 3 39s-12 25-22 34c-12 10-25 18-40 23-24 9-50 12-76 10-2 6-5 11-10 15-6 6-16 7-24 6-14-2-27-8-39-16a54 54 0 0 1-39 21c-13 0-26-5-37-10-15-8-28-19-40-31l-9 15c-16 26-39 47-66 60-19 10-39 15-60 13 6 11 7 24 6 36-1 11-6 20-14 27-6 4-14 7-21 8-2 11-7 20-15 28-8 7-19 12-30 12-10 0-19-3-28-7-14-9-25-23-30-39-2-10-2-20 1-29-15-1-30-6-40-17-7-7-11-15-13-24-4-14-2-29 2-43 9-27 28-51 52-67 9-6 18-11 29-14-5-6-8-13-9-21 0-9 3-18 8-26 6-9 14-17 23-23a102 102 0 0 1 81-13c0-5 0-9 2-14 3-9 8-18 13-27a162 162 0 0 1 65-55c10-5 21-7 32-3 11 3 20 13 25 24 12-13 26-24 41-34a199 199 0 0 1 97-28Z" fill="#000000"/></g><g transform="translate(10 -60)"></g></g></svg>