<svg xmlns="http://www.w3.org/2000/svg" viewBox="0 0 980 980" fill="none" shape-rendering="auto"><desc>"Lorelei" by "Lisa Wischofsky", licensed under "CC0 1.0". / Remix of the original. - Created with dicebear.com</desc><metadata xmlns:dc="http://purl.org/dc/elements/1.1/" xmlns:cc="http://creativecommons.org/ns#" xmlns:rdf="http://www.w3.org/1999/02/22-rdf-syntax-ns#"><rdf:RDF><cc:Work><dc:title>Lorelei</dc:title><dc:creator><cc:Agent rdf:about="https://www.instagram.com/lischi_art/"><dc:title>Lisa Wischofsky</dc:title></cc:Agent></dc:creator><dc:source>https://www.figma.com/community/file/1198749693280469639</dc:source><cc:license rdf:resource="https://creativecommons.org/licenses/zero/1.0/" /></cc:Work></rdf:RDF></metadata><mask id="viewboxMask"><rect width="980" height="980" rx="0" ry="0" x="0" y="0" fill="#fff" /></mask><g mask="url(#viewboxMask)"><g transform="translate(10 -60)"><path fill-rule="evenodd" clip-rule="evenodd" d="M466 143c-6-10-15-19-28-20l4 6 2 4 7 13 2 2c5 12 8 24 9 37 0 7-2 13-4 20-3-17-12-30-22-42a97 97 0 0 0-38-24 106 106 0 0 0-62-5c-8 1-15 5-23 9-7 4-13 10-19 15a143 143 0 0 0-33 51c-6 15-13 30-22 44-7 12-17 23-27 32l-28 19a715 715 0 0 0-48 33c-23 20-40 47-49 77-4 15-7 31-5 46 2 8 4 15 8 22v8c-4 19-5 39 1 58a166 166 0 0 0 33 61l14 19c6 10 11 21 12 33 0 9-3 17-10 23a39 39 0 0 1-40 7l-5-3-4-2-1 2c-1 1-2 3-1 5l7 13c6 8 13 14 22 18 7 4 15 5 23 3 5-1 9-3 13-6 0 10 3 20 6 29 4 11 10 22 19 30 8 8 18 12 28 15 9 3 18 3 27 1 2-1 2-2 2-4l-3-7-1-2-8-20c18 13 39 19 61 21 14 1 29-1 42-6 3-1 7-3 8-6 2-3 0-6-1-9l-4-15-1-3c9 6 18 10 29 10 12 0 25-5 32-15l3-1a541 541 0 0 0-31-129 322 322 0 0 0-25-52l-2-6c0-15-2-32-11-44 7-11 8-25 9-37 0-10 0-20-5-29l4-1 8-1c2-1 3-4 4-6a350 350 0 0 1 30-80l7-14c2-3 2-6 3-10v-4l-2-14-1-9 20 6h10a532 532 0 0 1 153-4l7 2 5 2c2 0 5-1 6-3 3-3 4-7 5-11l3 2 9 7 7 4a62 62 0 0 0 14 1l16 16 1 1a403 403 0 0 1 54 79c4 3 9 1 11-3 7-16 8-34 5-51a126 126 0 0 0-38-66c-6-7-14-13-22-19l-42-22c-21-9-43-16-65-20-25-5-50-5-76-4 11-11 14-26 14-41 0-13-5-25-12-36ZM208 321c12-14 24-28 33-45l-16 17c-10 9-21 15-32 22l-11 7-3 1c-13 8-27 17-38 27-22 19-37 45-44 73-3 15-5 31-1 46 6-18 15-36 25-52 13-20 29-39 46-56l19-19 22-21Z" fill="#000000"/><path d="M528 244c41 6 80 22 113 47 28 21 50 49 65 81 13 28 20 60 19 91-1 15-3 30-8 44h-2l1-21c1-30-2-59-13-87-10-30-28-57-50-79-42-40-98-62-156-63a243 243 0 0 0-196 94 207 207 0 0 0-40 139l2 25c8 0 19 0 25 7l-3 3-17 1c-12 1-24 5-33 13a64 64 0 0 0-17 39c-5 32 12 65 39 83 16 10 36 15 55 9 4-2 9-5 14-3 3 1 4 4 5 7a251 251 0 0 0 90 100c8 7 18 13 28 18 18 8 38 14 57 19l32 8c5 1 9 1 13 3l-4 1c-25 2-48-3-72-10-12-3-23-7-34-12a306 306 0 0 1-84-63l2 28c1 17 0 35-6 52-4 12-11 24-19 34-10 10-22 19-34 26-10 7-21 14-32 18l-16 5 9-9 31-20 22-17a95 95 0 0 0 32-56c2-14 2-28 2-43v-27c-10-14-22-29-27-46-17 8-38 7-55-1-17-7-32-19-43-33-12-17-19-36-21-56s2-40 15-56c9-10 22-18 35-21-4-14-6-29-6-44a234 234 0 0 1 83-173 249 249 0 0 1 199-55Z" fill="#000"/><path d="M653 320c22 22 40 49 50 79 11 28 14 57 13 87l-1 21-5 15-2 13 2 56c0 21 1 42-1 63l-3 47c-2 16-7 31-14 45-11 18-26 33-44 44-13 8-27 12-41 16l-38 11-17 3c0 1 1 2 3 2 8 5 17 5 26 4-3 7-4 14-2 22 3 7 11 11 17 14 12 6 24 7 36 9 7 6 14 14 16 24 2 8 2 16-2 23-5 10-14 18-24 23-13 8-27 14-42 18a468 468 0 0 1-222-1c-17-4-33-9-48-17-12-6-23-13-32-22-5-7-9-14-10-23 11-4 22-11 32-18 12-7 24-16 34-26 8-10 15-22 19-34 6-17 7-35 6-52l-2-28 22 23c19 15 40 30 62 40 11 5 22 9 34 12 24 7 47 12 72 10l4-1c-4-2-8-2-13-3l-32-8c-19-5-39-11-57-19l-29-17c-11-9-23-17-33-27a251 251 0 0 1-56-74c-1-3-2-6-5-7-5-2-10 1-14 3-19 6-39 1-55-9a88 88 0 0 1-39-83c1-14 7-28 17-39 9-8 21-12 33-13l17-1 3-3c-6-7-17-7-25-7l-2-25a207 207 0 0 1 40-139 243 243 0 0 1 196-94c58 1 114 23 156 63Z" fill="#ffffff"/><path d="M710 522c3 0 3 4 4 6 3 11 4 23 5 34l2 21c1 22 2 43 1 65-1 21-1 44-5 65a136 136 0 0 1-80 99c-15 7-31 11-48 13v15c1 3 3 4 5 6 12 6 23 8 36 11 12 3 24 5 36 11-3 3-7 4-11 4-7 1-15-1-23-1-12-2-24-3-36-9-6-3-14-7-17-14-2-8-1-15 2-22-9 1-18 1-26-4-2 0-3-1-3-2l17-3 38-11c14-4 28-8 41-16 18-11 33-26 44-44 7-14 12-29 14-45l3-47c2-21 1-42 1-63l-2-56 2-13ZM252 549c8 0 17 1 23 7 5 4 10 9 12 15 1 3 0 6-2 8l-13 8c-7 6-7 19 0 25 6 5 14 8 21 11 2 0 5 1 6 3-1 2-3 3-5 3-10 0-20-3-28-9-5-3-8-8-9-13-2-8-2-17 4-24 4-6 11-9 18-12-4-5-7-11-14-13-7-3-15-3-22-5l9-4Z" fill="#000"/><path d="M686 474c5 2 10 7 12 12 3 8 3 17 1 25-1 4-4 8-9 8s-9-5-8-10c0-8 3-15 1-23l-5-4c-6 0-12 3-17 5 2 3 4 5 4 8 2 7 1 14 0 21-1 8-4 14-9 20-3 2-7 6-11 7-5 1-10-1-12-5-4-5-4-11-3-16l-6 8c-1 2-2 3-4 3-1-2 0-6 1-8a95 95 0 0 1 44-49c6-3 14-4 21-2ZM470 481c18 6 35 17 46 33 3 4 6 9 7 14 1 3 1 5-1 6-3 1-6-3-8-5-3 6-2 13-6 18-3 4-7 8-11 10-6 3-13 3-19 1s-10-8-14-13c-5-10-5-20-4-30 1-8 4-15 9-21-14-5-29-8-42-2-10 4-16 11-19 21-1 5 0 11-3 15-3 3-9 3-12 0s-4-7-3-11c1-12 7-22 16-30 6-4 12-7 19-9 15-4 31-3 45 3Z" fill="#000000"/><path d="M524 402c7 3 12 9 15 16 4 6 6 12 4 19-1 2-2 5-4 3-3-2-5-6-6-9l-14 2-26 3-39 4c-12 1-24 0-36-1-3 0-7-1-9-3-3-2-2-7 1-8 9-3 20-2 30-4 7-1 14-4 20-6 9-3 17-7 26-9l20-5c5-1 12-4 18-2ZM631 404c11 0 19 6 30 8 6 2 14 1 20 5 2 1 3 4 2 7-2 2-5 2-8 2l-14 1-25 6-23 2-5 18-3 3-2-5c-1-10 0-21 5-30 2-4 4-9 8-12 4-4 10-6 15-5Z" fill="#000000"/><path d="M597 505h1l3 15 3 26 8 13 6 12c2 5 2 10 5 14 3 5 5 10 5 16 0 9-6 17-14 20l-19 8c-5 3-9 5-15 5-5 0-11 0-13-5-2-2 0-4 2-5l12-3 16-5 13-5c6-2 9-8 7-14l-5-8-7-17-7-19c-4-8-6-17-5-26 0-7 1-15 4-22Z" fill="#000000"/><path d="M587 747c7-1 14 0 20 2-3 3-9 4-13 5l-43 11c-2 1-5 2-6 0-1-3 1-5 3-6 5-4 12-7 19-8l20-4Z" fill="#000000"/><path d="M508 220a271 271 0 0 1 97 24c14 7 29 14 42 23 8 5 16 11 22 18l22 25c-9 4-18 3-27 2-17-2-34-4-51-3l-8-1-7-5-12-8c0 4-1 7-3 11-2 2-4 3-7 3-4-1-7-3-11-3a470 470 0 0 0-155 3h-11l-18-6c1 9 4 18 3 26-1 4-1 8-3 11-7 14-15 27-21 42-7 17-13 35-17 53 0 2-1 4-3 5l-12 2c5 9 6 20 5 30-1 12-3 26-9 36 7 9 10 21 10 33 1 19 0 37-7 55-2 4-5 9-10 11-1 1-4 1-4-1-2-4-2-9-3-13-2-15-9-29-20-40-8-7-17-14-26-19-6-2-11-4-16-8l-6-8c-12-32-16-67-12-101a285 285 0 0 1 37-113c10-16 22-30 35-43 10-9 20-17 31-23l14-5 32-11 19-2h43c23 0 44-2 67 0Z" fill="#000000"/></g><g transform="translate(10 -60)"></g></g></svg>