<svg xmlns="http://www.w3.org/2000/svg" viewBox="0 0 980 980" fill="none" shape-rendering="auto"><desc>"Lorelei" by "Lisa Wischofsky", licensed under "CC0 1.0". / Remix of the original. - Created with dicebear.com</desc><metadata xmlns:dc="http://purl.org/dc/elements/1.1/" xmlns:cc="http://creativecommons.org/ns#" xmlns:rdf="http://www.w3.org/1999/02/22-rdf-syntax-ns#"><rdf:RDF><cc:Work><dc:title>Lorelei</dc:title><dc:creator><cc:Agent rdf:about="https://www.instagram.com/lischi_art/"><dc:title>Lisa Wischofsky</dc:title></cc:Agent></dc:creator><dc:source>https://www.figma.com/community/file/1198749693280469639</dc:source><cc:license rdf:resource="https://creativecommons.org/licenses/zero/1.0/" /></cc:Work></rdf:RDF></metadata><mask id="viewboxMask"><rect width="980" height="980" rx="0" ry="0" x="0" y="0" fill="#fff" /></mask><g mask="url(#viewboxMask)"><g transform="translate(10 -60)"><path d="M632 187c17 9 33 22 41 40 9 17 10 35 7 53 15 14 22 34 24 54 1 9 2 20-2 30-1 3-3 8-7 11l-4 1-10-8c-9-12-16-24-23-37-7 10-17 19-28 24l-6-3c-9-5-14-17-23-21l-5 18c-1 3-3 6-6 6-6-1-12-3-17-6-22-10-45-20-69-27 2 6 3 12 1 18 0 2-2 4-4 6h-14a188 188 0 0 0-69 0c-6 1-12 5-19 7l-48 20-12 26c-5 12-9 25-12 37-1 3-2 7-1 10 2 4 7 5 9 9v5c-4 10-6 22-7 33-3 16-3 33-3 49v21c0 3-3 6-7 6-4 1-8 0-12-2l19 14c3 2 5 4 5 8-1 2-4 3-6 4 3 1 5 2 6 5 2 3 1 6-2 8-5 3-12 1-16-2-2-3-5-7-5-11 1-2 3-2 5-3-6-3-10-7-15-11-11-9-25-15-37-22l-11-7-4-7a322 322 0 0 1-24-121c1-20 5-41 11-61 5-13 11-26 20-36 7-10 16-18 28-22-3-10-4-20 0-29 4-15 15-27 29-35 18-10 37-16 57-20 27-5 56-8 83-12 26-4 52-11 78-18 19-5 38-10 58-11 16 0 32 2 47 9Z" fill="#000000"/><path d="M495 231a231 231 0 0 1 219 204c1 10 2 21 0 30-1 4-1 7-4 8-3-10-3-19-4-29a220 220 0 0 0-239-205c-42 4-83 19-117 44l-17 13a221 221 0 0 0-78 164c0 23 7 43 15 64h17c3 1 4 4 2 6l-6 2c-15 1-31 7-42 17-8 9-14 19-16 31-3 15 0 32 8 45 9 15 24 27 40 33 14 5 29 7 43 5 4-1 8-2 11 0v3c-5 5-11 6-18 7-16 3-33-1-47-8a86 86 0 0 1-47-58c-4-18-1-37 9-53 8-12 20-21 34-26-7-14-10-28-12-43-2-18-2-35 0-53 1-13 4-25 8-38a227 227 0 0 1 99-122c41-28 92-43 142-41Z" fill="#000"/><path d="M535 244a220 220 0 0 1 171 200c1 10 1 19 4 29l-2 18v22c-3 4-4 9-4 14-2 8-2 15-2 23v65c0 21-3 42-11 61-4 13-10 24-18 35-10 12-21 22-34 31-11 9-24 17-37 24l-22 14-12 8 9-2c-3 11-3 24-4 36 0 8 1 16 7 22a235 235 0 0 0 81 45c6 7 11 16 13 25 1 9 0 18-4 27-6 10-14 18-23 24-13 10-28 17-43 22a417 417 0 0 1-217 11c-16-3-33-9-48-17-10-5-21-12-28-21-6-6-10-14-11-22-2-10 0-21 5-30 21-13 39-32 49-54 5-11 7-22 8-34 1-16 0-32-1-47-2-20-3-41-8-61 11 12 23 24 37 32 17 11 36 20 55 26 20 7 41 13 63 18l25 3c3 0 6 0 8-2 2-1 1-2 2-3l-17-2c-29-7-58-16-87-27-18-7-36-15-53-27-18-13-33-30-47-47l-11-16-1-1v-3c-3-2-7-1-11 0-14 2-29 0-43-5-16-6-31-18-40-33-8-13-11-30-8-45 2-12 8-22 16-31 11-10 27-16 42-17l6-2c2-2 1-5-2-6h-17c-8-21-15-41-15-64-1-14 2-27 5-41a221 221 0 0 1 73-123l17-13a230 230 0 0 1 185-39Z" fill="#ffffff"/><path d="M708 513c3 3 2 7 3 12v29c0 26 2 54 0 80-3 31-14 63-36 86-25 28-57 51-93 64l2 7v35c1 6 4 10 8 14l26 19 32 20 24 12c2 0 3 1 5 3l-19-5c-19-6-37-14-54-25-9-5-19-12-26-20-6-6-7-14-7-22 1-12 1-25 4-36l-9 2 12-8 22-14c13-7 26-15 37-24 13-9 24-19 34-31a178 178 0 0 0 29-96v-65c0-8 0-15 2-23 0-5 1-10 4-14ZM278 574c5 5 4 14 0 19l-3 7c1 3 5 5 7 6 6 3 12 7 19 9 0 4-3 5-7 5-6-1-13-3-18-6-7-3-13-8-13-16 0-6 5-9 6-14 2-4 0-7-1-11 4-1 7-2 10 1ZM328 667l11 16c14 17 29 34 47 47 17 12 35 20 53 27a714 714 0 0 0 104 29c-1 1 0 2-2 3-2 2-5 2-8 2l-25-3a478 478 0 0 1-118-44c-14-8-26-20-37-32 5 20 6 41 8 61 1 15 2 31 1 47-1 12-3 23-8 34-10 22-28 41-49 54l-14 8c2-4 6-6 9-9 13-11 24-25 34-39 6-10 12-21 14-33 4-19 3-39 3-58l-3-59 2-10c-10-11-19-26-22-41Z" fill="#000"/><path d="M455 468c14 0 27 5 38 13 15 10 26 25 30 43v14c-1 1-2 2-4 1-3-3-5-8-7-12-8-14-18-28-32-36-10-6-22-8-33-6 7 12 11 26 11 40 0 9-4 16-8 24-2 2-5 1-7 1-7 0-13-2-20-4-3-2-8-4-10-8l-1-14 4-19-6 8c-3 4-10 4-13 0-3-3-3-8-1-12 6-8 13-16 22-22 11-8 24-11 37-11ZM684 488c2 1 3 3 0 4l-15 8c5 0 10-1 15 2 3 1 6 5 6 9-4 4-9 7-15 7-15 0-30 3-44 10-3 1-8 2-11-1-4-3-4-9-2-12 2-4 5-6 8-8l45-17c4-1 9-3 13-2Z" fill="#000000"/><path d="M494 368c5 0 9 3 11 7 8 8 15 18 20 28 2 5 4 10 3 15-1 2-2 4-4 3l-5-6c-4-8-10-15-16-22 0 4 1 10-1 13-1 4-4 6-8 6-5 0-10-4-14-7l-13-5c-2 1-4 3-6 2l-11-2-20-2-18 2c3-4 8-6 13-8 10-5 21-5 32-4 3 1 6-2 10-1 10 0 17 4 25 10l-4-19c-1-4 1-9 6-10ZM637 383c3 1 5 2 5 5 0 4-3 8-5 13 4-2 7-5 11-5 3 1 4 3 6 6 5-2 12-4 18-2 3 1 4 3 5 5-3 3-6 5-10 6-5 2-11 4-16 4-3 0-5-2-7-3l-10 6c-3 0-6-1-7-4l-1-8-8 15-4 6c-2 0-3 0-4-2-2-3 1-8 2-11 3-8 8-16 14-23 3-3 6-7 11-8Z" fill="#000000"/><path d="M293 643c3-2 7-1 9 1 3 2 4 6 3 10-2 4-7 7-12 5-3-1-5-5-4-8 0-4 1-7 4-8Z" fill="#000000"/><path d="M597 505h1l3 15 3 26 8 13 6 12c2 5 2 10 5 14 3 5 5 10 5 16 0 9-6 17-14 20l-19 8c-5 3-9 5-15 5-5 0-11 0-13-5-2-2 0-4 2-5l12-3 16-5 13-5c6-2 9-8 7-14l-5-8-7-17-7-19c-4-8-6-17-5-26 0-7 1-15 4-22Z" fill="#000000"/><path d="M714 580a143 143 0 0 1 12 75l15-2c4-1 7 1 7 5l-3 6-25 26 21 2c11-1 22-1 33 1 3 0 6 1 9 4 2 3 2 7-1 10-2 5-7 8-11 11-11 7-23 13-34 21 7 4 15 6 23 8 3 1 6 2 8 5 3 3 2 8 0 12l-14 10c-10 6-21 11-32 15-9 3-19 4-28 6 2 5 5 10 9 14l13 11c2 4 3 9 0 13-3 2-5 3-9 3a300 300 0 0 1-91-3l-22-4c-1 5 0 11-4 14-3 3-7 4-11 3-10 0-20-3-29-5l-50-12c-4-1-10-3-14-1s-5 8-5 12c-1 4-4 7-8 8s-9-1-13-3c-8-4-16-9-23-15l-23-21c-9-9-18-19-28-26l-4 6h-8l-8-9c-7-10-12-21-18-32-5-8-8-18-11-27l-4-7-10-1c-4-2-6-7-6-11 0-11 2-22 6-33-4-1-6-4-8-8-2-2-3-4-3-7-1-5 0-9 1-14l-3 2c-4-2-5-9-5-13 1-14 5-29 11-42 1-2 2-5 4-6 1-2 3-2 4 0 2 1 2 5 2 7l-4 21 9-15c2-1 5-3 7-1l-1 7-6 24c3-5 5-10 9-13 2-2 5-1 5 1 1 4 0 9-1 13l4-6c6-6 11-13 18-17l10-2c10 0 21 2 31 4 12 2 23 6 36 7l-10-6c-2-3-1-8 3-9 6-3 14-1 20 0l34 6 38 14c15 6 29 13 43 21 15-6 31-10 45-18l25-11c3-2 7-3 10 0 2 2 1 4 1 7l21-17 19-15c5-6 15-7 22-3Z" fill="#000000"/><path d="M607 684c3 2 2 6 1 9-2 8-4 15-9 22-5 5-10 10-17 12-10 4-22 2-31-3-4-2-9-5-11-9-1-1-2-3-1-4 2-2 5-3 8-3 9 1 18 6 27 7 7 1 13-3 17-8 5-6 8-15 12-22 1-2 2-2 4-1Z" fill="#ffffff"/><path d="M617 181c12 4 24 10 34 18 12 10 22 23 27 38a105 105 0 0 1-16 90c-8 11-19 22-32 28-8-2-12-7-17-13-3-4-7-9-12-11l-4 16c-1 2-2 6-5 7-2 3-7 0-10-1l-36-16-42-15c2 6 2 12 1 18 0 2-2 4-4 6h-14c-14-3-29-4-43-3-23 1-46 8-69 13l-18 1-11 27c-8 17-14 34-19 52-1 3-2 7-1 10 2 4 7 5 9 8v5c-4 10-6 21-7 32-3 18-3 36-3 55v17c0 3-4 6-7 6-4 1-8 0-12-2l20 14c2 2 4 5 4 8-1 2-4 3-6 4 3 1 7 3 7 7s-3 6-6 7c-7 2-16-4-18-12 0-3 1-5 5-5-8-4-14-10-18-17-3-4-5-9-5-14 1-2 4 0 6 0-7-6-14-13-19-20-1-3-4-3-6-3l-24-6c-2-1-6-1-7-4l-5-17-8-43a370 370 0 0 1-1-71l7-31a118 118 0 0 1 49-59c-4-10-5-19-2-29 4-15 14-27 28-35 17-11 37-17 57-21 28-6 57-9 85-13 26-4 51-10 76-17l36-9c19-3 37-4 56 0Z" fill="#000000"/></g><g transform="translate(10 -60)"></g></g></svg>