<svg xmlns="http://www.w3.org/2000/svg" viewBox="0 0 980 980" fill="none" shape-rendering="auto"><desc>"Lorelei" by "Lisa Wischofsky", licensed under "CC0 1.0". / Remix of the original. - Created with dicebear.com</desc><metadata xmlns:dc="http://purl.org/dc/elements/1.1/" xmlns:cc="http://creativecommons.org/ns#" xmlns:rdf="http://www.w3.org/1999/02/22-rdf-syntax-ns#"><rdf:RDF><cc:Work><dc:title>Lorelei</dc:title><dc:creator><cc:Agent rdf:about="https://www.instagram.com/lischi_art/"><dc:title>Lisa Wischofsky</dc:title></cc:Agent></dc:creator><dc:source>https://www.figma.com/community/file/1198749693280469639</dc:source><cc:license rdf:resource="https://creativecommons.org/licenses/zero/1.0/" /></cc:Work></rdf:RDF></metadata><mask id="viewboxMask"><rect width="980" height="980" rx="0" ry="0" x="0" y="0" fill="#fff" /></mask><g mask="url(#viewboxMask)"><g transform="translate(10 -60)"><path d="M495 234c28 1 56 6 84 15a201 201 0 0 1 100 65c19 25 31 55 35 86a361 361 0 0 1 2 101l-5 34-4 20c-1 2-1 2-3 2-2-4-2-8-2-12-1-15 1-29 2-44 1-24 3-48 1-72l-6-45c-7-28-20-54-40-75-18-18-40-33-63-43-22-9-44-15-67-19-18-3-36-4-54-4a277 277 0 0 0-128 29c-13 9-25 20-35 32a276 276 0 0 0-55 139c-1 24 0 47 8 70l7 15 12 1 1 3c-3 2-7 2-11 3-10 2-20 6-29 12-7 5-14 11-18 19-5 10-3 22-1 33 5 19 17 37 33 49 11 9 25 14 39 16 10 2 20 0 30-1 5 4 8 12 11 17l18 27a136 136 0 0 0 66 50c22 9 45 14 68 19l41 8 17 5v4h-12a535 535 0 0 1-67-8 255 255 0 0 1-84-33c-11-7-21-16-29-27a214 214 0 0 1-16 123c-15 27-40 48-70 57-3 1-7 2-10 1-2 0-2-1-2-3 1-3 4-5 6-6 12-8 26-14 38-23 13-11 24-23 31-38 6-15 10-32 12-49 2-13 3-26 2-40l-4-38-18-36-19 4a88 88 0 0 1-75-38 93 93 0 0 1-20-58c0-9 3-18 8-25s12-13 19-17c5-4 12-6 18-8l-9-24c-5-22-5-45-2-67a292 292 0 0 1 63-149c9-10 18-19 29-26 7-4 14-5 20-9 43-19 90-25 137-22Z" fill="#000"/><path d="M475 243a276 276 0 0 1 121 23c23 10 45 25 63 43 20 21 33 47 40 75l6 45c2 24 0 48-1 72-1 15-3 29-2 44 0 4 0 8 2 12l-1 20c-2 5-2 10-2 16-2 24-2 49-6 74-1 12-3 25-8 36-3 9-8 17-15 24-12 13-27 24-43 33-19 11-39 16-58 24-5 2-10 4-13 8 8 1 15 0 23-2-5 12-6 24-6 36 0 5-1 11 1 16 3 5 8 9 13 12l35 13c22 8 43 18 65 27 2 4 5 7 6 12 6 11 7 23 3 35-5 13-15 24-27 31-16 11-36 19-55 24a494 494 0 0 1-235-7c-20-7-40-14-58-24-14-8-29-18-40-31-6-8-11-19-12-29a122 122 0 0 0 86-107c4-24 4-49 0-73 8 11 18 20 29 27l27 14a331 331 0 0 0 124 27h12v-4l-17-5-41-8c-23-5-46-10-68-19-13-6-27-13-39-21-10-9-19-18-27-29l-18-27c-3-5-6-13-11-17-10 1-20 3-30 1-14-2-28-7-39-16a94 94 0 0 1-33-49c-2-11-4-23 1-33 4-8 11-14 18-19 9-6 19-10 29-12 4-1 8-1 11-3l-1-3-12-1-7-15c-8-23-9-46-7-70a276 276 0 0 1 54-139c10-12 22-23 35-32a277 277 0 0 1 128-30Z" fill="#ffffff"/><path d="M260 571c4 0 7 0 11 2 5 1 11 4 14 8 2 3 2 7 0 10-5 6-12 10-16 16 6 4 14 6 21 9 4 1 8 3 11 6l1 3-8-2-24-7c-4-1-8-3-9-7-1-3 1-7 3-10l15-13c-4-7-15-8-19-15ZM703 577l2 3 2 16a483 483 0 0 1-2 89c-2 11-5 23-10 33a198 198 0 0 1-106 71c-1 14-3 31-2 47l5 5c8 6 18 9 27 12a451 451 0 0 1 68 28c7 4 13 9 18 15-5 1-10-1-16-2-22-9-43-19-65-27l-35-13c-5-3-10-7-13-12-2-5-1-11-1-16 0-12 1-24 6-36-8 2-15 3-23 2 3-4 8-6 13-8 19-8 39-13 58-24 16-9 31-20 43-33 7-7 12-15 15-24 5-11 7-24 8-36 4-25 4-50 6-74 0-6 0-11 2-16Z" fill="#000"/><path d="M665 473c7-1 15-1 22 3 6 4 10 9 11 16l17 3c-4 4-11 6-17 6-5 0-11-1-15-4l-10-8c-6-3-11-2-17 0 3 3 6 6 7 10 4 12 3 25-2 36l10-5c1 6-1 10-5 13-8 9-21 10-33 10-4-1-10-3-12-7-3-4-1-8-3-12s-1-9 0-13a70 70 0 0 1 47-48ZM457 484c27 1 52 18 64 42 2 2 3 6 1 9-3 0-5-4-7-6-6-10-14-18-23-24-10-6-21-8-32-8 6 10 9 22 8 33-1 9-5 19-12 25l9 4c-6 3-12 3-18 2-11-3-21-8-30-15-9-6-16-15-19-25-14 0-29-2-43-8 3-2 5-2 8-2l28-4c4-1 8-1 11-4 15-13 35-20 55-19Z" fill="#000000"/><path d="M505 385c8 1 16 2 23 6 5 4 8 9 10 14l-2 2c-2 1-4-1-6-2-9-6-21-7-32-7-9 0-18 2-27 6-8 3-17 5-24 9l-19 7c-13 5-27 5-40 10-7 3-12 9-18 13l-9 9c1-8 5-16 10-22l13-13c7-6 17-9 26-11 10-2 19-6 29-9l19-5c8-2 15-5 23-6l24-1ZM671 399c7 1 14 4 22 4v3c-7 6-15 9-24 10-12 2-26-1-37 3l-5 3c-9 10-14 22-20 34-2-7 3-15 5-22s7-12 9-19c4-9 14-16 24-16h26Z" fill="#000000"/><path d="M603 613v1c-4 8-11 15-20 18-3 1-7 1-9-1v-4c7-5 16-9 24-12l5-2Z" fill="#000000"/><path fill-rule="evenodd" clip-rule="evenodd" d="M661 646c3 3 6 8 7 12 3 5 4 11 3 17l-4-5-1-2-10-15-1-1v-1c-1-2-2-3-1-5 2-2 4-1 7 0Zm-30 25a40 40 0 0 1 29 13c3 4 7 7 8 10 2 4 2 8-2 10-5 4-13 5-20 5a5207 5207 0 0 1-42 1l-28 3-18 1-10 2-19 1c1-3 2-4 5-5l5-6 4-3c7-7 17-12 26-17l2-1c10-5 21-9 31-11 10-3 19-4 29-3Zm-6 29c-1-7 1-14 4-20-11-1-22 0-32 3l-1 11-1 7 30-1Zm11-19 1 1 4 1c6 2 11 7 15 12l3 3c-6 2-12 2-19 2h-10c4-6 6-12 6-19Zm-48 20c-1-5 0-10 1-15a254 254 0 0 0-43 21c10-3 21-4 31-5l11-1Z" fill="#000000"/><path d="M365 270c2 2 4 4 4 7 0 7-6 12-8 18 0 4 0 8 2 11 5 10 13 15 19 23 3 2 4 7 1 10l-13 8-6 10c-6 12-10 26-12 39l-2 14c-2 4-4 7-8 10-8 4-14 10-20 16-5 7-10 14-13 23-3 11-1 25 2 37 2 0 6 0 8 3-4 7-13 11-21 15 6-1 11-3 17-1 1 1 4 1 3 3-3 6-10 9-16 13-8 3-16 3-24 1l-15-4c-2-1-5-1-7-3-11-11-19-24-24-39a168 168 0 0 1-1-97c9-31 25-59 47-82 12-12 26-22 41-29s30-10 46-6ZM333 526c0 2-2 4-4 5-5 6-14 8-22 9-3 1-8 1-11-1 1-4 5-7 8-9 9-5 19-8 29-4Z" fill="#000000"/></g><g transform="translate(10 -60)"></g></g></svg>