<svg xmlns="http://www.w3.org/2000/svg" viewBox="0 0 980 980" fill="none" shape-rendering="auto"><desc>"Lorelei" by "Lisa Wischofsky", licensed under "CC0 1.0". / Remix of the original. - Created with dicebear.com</desc><metadata xmlns:dc="http://purl.org/dc/elements/1.1/" xmlns:cc="http://creativecommons.org/ns#" xmlns:rdf="http://www.w3.org/1999/02/22-rdf-syntax-ns#"><rdf:RDF><cc:Work><dc:title>Lorelei</dc:title><dc:creator><cc:Agent rdf:about="https://www.instagram.com/lischi_art/"><dc:title>Lisa Wischofsky</dc:title></cc:Agent></dc:creator><dc:source>https://www.figma.com/community/file/1198749693280469639</dc:source><cc:license rdf:resource="https://creativecommons.org/licenses/zero/1.0/" /></cc:Work></rdf:RDF></metadata><mask id="viewboxMask"><rect width="980" height="980" rx="0" ry="0" x="0" y="0" fill="#fff" /></mask><g mask="url(#viewboxMask)"><g transform="translate(10 -60)"><path d="M495 231a231 231 0 0 1 219 204c1 10 2 21 0 30-1 4-1 7-4 8-3-10-3-19-4-29a220 220 0 0 0-239-205c-42 4-83 19-117 44l-17 13a221 221 0 0 0-78 164c0 23 7 43 15 64h17c3 1 4 4 2 6l-6 2c-15 1-31 7-42 17-8 9-14 19-16 31-3 15 0 32 8 45 9 15 24 27 40 33 14 5 29 7 43 5 4-1 8-2 11 0v3c-5 5-11 6-18 7-16 3-33-1-47-8a86 86 0 0 1-47-58c-4-18-1-37 9-53 8-12 20-21 34-26-7-14-10-28-12-43-2-18-2-35 0-53 1-13 4-25 8-38a227 227 0 0 1 99-122c41-28 92-43 142-41Z" fill="#000"/><path d="M535 244a220 220 0 0 1 171 200c1 10 1 19 4 29l-2 18v22c-3 4-4 9-4 14-2 8-2 15-2 23v65c0 21-3 42-11 61-4 13-10 24-18 35-10 12-21 22-34 31-11 9-24 17-37 24l-22 14-12 8 9-2c-3 11-3 24-4 36 0 8 1 16 7 22a235 235 0 0 0 81 45c6 7 11 16 13 25 1 9 0 18-4 27-6 10-14 18-23 24-13 10-28 17-43 22a417 417 0 0 1-217 11c-16-3-33-9-48-17-10-5-21-12-28-21-6-6-10-14-11-22-2-10 0-21 5-30 21-13 39-32 49-54 5-11 7-22 8-34 1-16 0-32-1-47-2-20-3-41-8-61 11 12 23 24 37 32 17 11 36 20 55 26 20 7 41 13 63 18l25 3c3 0 6 0 8-2 2-1 1-2 2-3l-17-2c-29-7-58-16-87-27-18-7-36-15-53-27-18-13-33-30-47-47l-11-16-1-1v-3c-3-2-7-1-11 0-14 2-29 0-43-5-16-6-31-18-40-33-8-13-11-30-8-45 2-12 8-22 16-31 11-10 27-16 42-17l6-2c2-2 1-5-2-6h-17c-8-21-15-41-15-64-1-14 2-27 5-41a221 221 0 0 1 73-123l17-13a230 230 0 0 1 185-39Z" fill="#ffffff"/><path d="M708 513c3 3 2 7 3 12v29c0 26 2 54 0 80-3 31-14 63-36 86-25 28-57 51-93 64l2 7v35c1 6 4 10 8 14l26 19 32 20 24 12c2 0 3 1 5 3l-19-5c-19-6-37-14-54-25-9-5-19-12-26-20-6-6-7-14-7-22 1-12 1-25 4-36l-9 2 12-8 22-14c13-7 26-15 37-24 13-9 24-19 34-31a178 178 0 0 0 29-96v-65c0-8 0-15 2-23 0-5 1-10 4-14ZM278 574c5 5 4 14 0 19l-3 7c1 3 5 5 7 6 6 3 12 7 19 9 0 4-3 5-7 5-6-1-13-3-18-6-7-3-13-8-13-16 0-6 5-9 6-14 2-4 0-7-1-11 4-1 7-2 10 1ZM328 667l11 16c14 17 29 34 47 47 17 12 35 20 53 27a714 714 0 0 0 104 29c-1 1 0 2-2 3-2 2-5 2-8 2l-25-3a478 478 0 0 1-118-44c-14-8-26-20-37-32 5 20 6 41 8 61 1 15 2 31 1 47-1 12-3 23-8 34-10 22-28 41-49 54l-14 8c2-4 6-6 9-9 13-11 24-25 34-39 6-10 12-21 14-33 4-19 3-39 3-58l-3-59 2-10c-10-11-19-26-22-41Z" fill="#000"/><path d="M670 463c7 1 14 4 18 10 6 7 7 15 8 24 0 4-1 9-3 12-3 4-9 4-12 0-2-3-2-8-3-12 0-7-3-15-10-18 10 15 11 33 7 50-2 9-6 16-13 22-4 4-11 6-17 4-6-1-10-6-13-11-4-8-6-16-6-25l-5 14c-1 3-2 6-5 9-3-3-3-6-4-10a83 83 0 0 1 34-61c7-5 15-8 24-8ZM455 468c14 0 29 5 40 14 14 10 24 25 28 42v14c-1 1-2 2-4 1a163 163 0 0 0-17-27c1 14-2 28-11 39-6 8-15 14-26 15-11 0-21-7-27-16-8-12-9-27-6-41 2-9 7-17 13-23l-13 5c-6 5-13 9-18 16l-5 6c-3 4-9 4-12 0-3-3-3-8-1-12 6-8 13-16 22-22 11-8 24-11 37-11Z" fill="#000000"/><path d="M659 498c1 7-1 13-3 20l-5 9c-1 2-4 2-5 1l-4-7c-3-6-5-13-4-19 0-3 2-4 5-4 3 1 4 3 5 5 1-2 2-6 4-7 2-2 6-1 7 2ZM475 500c4 0 6 3 7 6 1 8-2 14-4 22 0 4-2 8-6 11-2 1-4 0-5-2l-10-15-3-8c-1-4-1-8 2-12 2-2 5-2 8 0l5 6c1-4 2-7 6-8Z" fill="#fff"/><path d="M658 387c7 1 14 2 20 5l6 5c-8 5-18 8-28 8h-17l-16 2c-6 1-10 7-13 12-6 11-8 25-10 37-4-3-3-8-3-12 0-14 2-29 10-41 4-6 10-13 17-14 11-3 23-3 34-2ZM533 426c6-1 12 0 17 3 2 0 2 1 2 3l-8 8c-3 3-8 4-12 6l-18 3-47 3c-14 1-28 1-41 4-14 4-26 10-37 18l-9 8c-1-2-1-4 1-6 3-6 9-12 14-17 16-12 35-19 55-22l69-7c5 0 9-3 14-4Z" fill="#000000"/><path d="M609 602c1 9-4 16-9 23-4 3-9 6-15 6s-13-3-19-5c-4-2-8-3-11-6l5-4c9-1 17 3 25 4 4 0 7-3 9-6 5-5 9-10 15-12Z" fill="#000000"/><path fill-rule="evenodd" clip-rule="evenodd" d="M622 659c1-4-5-4-7-4-15 0-30 3-45 7a441 441 0 0 0-84 36c-6 3-11 7-15 13l-2 4 5-1c5-5 12-8 18-12 0 7 0 14 4 20 3 6 9 10 15 11 9 1 19-3 26-9 11-8 18-20 24-32 3-6 3-11 3-17 16-6 33-9 49-12h1c3 0 6-1 8-4Zm-84 48c6-8 11-18 14-29l-27 10c0 7-4 14-7 21l-1-6v-1l2-12-23 10v1c2 6 4 14 9 18 4 5 10 5 16 3 7-3 13-9 17-15Z" fill="#000000"/><path d="M433 202h40c49 2 97 11 144 22 28 7 54 16 79 30 13 8 27 18 37 30 12 13 20 29 23 46 4 21 4 43-3 64-5 15-14 30-27 40-18 15-41 25-64 26-2 1-4 0-4-3l8-16a97 97 0 0 1-38 23c-4 1-10 2-14 0v-5c0-15-1-29-5-43-3-16-11-29-18-43 2 15 1 31-2 46-3 14-9 26-19 36-2 4-7 5-11 3l-2-7c-2-11-7-21-12-31-9-20-22-37-37-53a250 250 0 0 0-76-52 380 380 0 0 1-10 104c-4 14-10 28-19 40-3 4-7 10-12 12h-7c1-12 1-24-1-36-2-11-5-23-10-33-3 18-13 33-25 47-9 8-18 16-29 22v68l1 30c0 3-3 8-6 9-5-1-9-3-13-6-12-8-23-17-33-28a181 181 0 0 1-46-135 223 223 0 0 1 148-193c20-8 41-13 63-14Z" fill="#000000"/></g><g transform="translate(10 -60)"></g></g></svg>