<svg xmlns="http://www.w3.org/2000/svg" viewBox="0 0 980 980" fill="none" shape-rendering="auto"><desc>"Lorelei" by "Lisa Wischofsky", licensed under "CC0 1.0". / Remix of the original. - Created with dicebear.com</desc><metadata xmlns:dc="http://purl.org/dc/elements/1.1/" xmlns:cc="http://creativecommons.org/ns#" xmlns:rdf="http://www.w3.org/1999/02/22-rdf-syntax-ns#"><rdf:RDF><cc:Work><dc:title>Lorelei</dc:title><dc:creator><cc:Agent rdf:about="https://www.instagram.com/lischi_art/"><dc:title>Lisa Wischofsky</dc:title></cc:Agent></dc:creator><dc:source>https://www.figma.com/community/file/1198749693280469639</dc:source><cc:license rdf:resource="https://creativecommons.org/licenses/zero/1.0/" /></cc:Work></rdf:RDF></metadata><mask id="viewboxMask"><rect width="980" height="980" rx="0" ry="0" x="0" y="0" fill="#fff" /></mask><g mask="url(#viewboxMask)"><g transform="translate(10 -60)"><path d="M501 141c6-1 11 0 17 1 7 2 12 7 18 11 6 6 9 13 10 21 2-6 3-13 7-18 4-4 9-6 14-7 6-2 13-3 20-3 7 1 14 2 19 6 4 4 5 9 6 14l4 22c5-6 10-13 16-18 6-6 15-8 23-8 9 0 15 3 23 7 6 3 12 11 11 18 0 6-2 11-3 17 4-2 8-3 12-2 7 1 13 5 16 11 4 14 1 29-5 42 7-1 14 0 20 3 5 2 9 6 11 11 1 6-1 12-5 16-5 8-12 15-20 21 3 3 7 6 9 11s2 12-3 16c-3 4-8 5-12 6-13 4-26 6-39 4s-25-7-36-13l-5-6c-17 3-36 3-54 4-23 1-45 0-68-1l-51-4-43-4c-3 0-5 2-8 3-13 7-26 12-38 21l-14 13c-2 5-1 10 0 14 1 7 3 14 0 20l-11 13c-9 13-16 28-18 43-2 20 0 39 2 58 1 5-1 10-2 15l-7 8c4-1 9-3 12 1 0 4-5 7-8 9l10-2 6 2c-1 7-7 9-12 13 3 3 5 4 3 8-5 6-11 10-18 13l-7 2c-2-1-2-4-3-6l-22 6c-3 1-7 2-10 1l-5-6a203 203 0 0 1-27-123c1-23 6-46 14-68l-7-8c-4-5-5-12-7-17-3-9-4-18-1-27 2-6 6-11 11-16-3-3-7-6-9-10-3-7-2-14-2-21 1-6 3-13 8-17 5-3 11-2 17-2-3-6-7-13-5-20 1-6 6-12 10-16 6-7 14-12 24-11 9 0 17 5 25 8l-3-15c0-9 2-17 7-24 5-6 12-9 20-11 15-5 33 6 38 21 1-14 10-30 24-35 5-2 10-2 15-1 2-4 5-7 8-9 9-4 19-4 28-3 5 1 9 3 13 6 7 4 10 14 15 20 1-7 2-14 6-20 3-6 10-8 16-8Z" fill="#000000"/><path d="M495 234c28 1 56 6 84 15a201 201 0 0 1 100 65c19 25 31 55 35 86a361 361 0 0 1 2 101l-5 34-4 20c-1 2-1 2-3 2-2-4-2-8-2-12-1-15 1-29 2-44 1-24 3-48 1-72l-6-45c-7-28-20-54-40-75-18-18-40-33-63-43-22-9-44-15-67-19-18-3-36-4-54-4a277 277 0 0 0-128 29c-13 9-25 20-35 32a276 276 0 0 0-55 139c-1 24 0 47 8 70l7 15 12 1 1 3c-3 2-7 2-11 3-10 2-20 6-29 12-7 5-14 11-18 19-5 10-3 22-1 33 5 19 17 37 33 49 11 9 25 14 39 16 10 2 20 0 30-1 5 4 8 12 11 17l18 27a136 136 0 0 0 66 50c22 9 45 14 68 19l41 8 17 5v4h-12a535 535 0 0 1-67-8 255 255 0 0 1-84-33c-11-7-21-16-29-27a214 214 0 0 1-16 123c-15 27-40 48-70 57-3 1-7 2-10 1-2 0-2-1-2-3 1-3 4-5 6-6 12-8 26-14 38-23 13-11 24-23 31-38 6-15 10-32 12-49 2-13 3-26 2-40l-4-38-18-36-19 4a88 88 0 0 1-75-38 93 93 0 0 1-20-58c0-9 3-18 8-25s12-13 19-17c5-4 12-6 18-8l-9-24c-5-22-5-45-2-67a292 292 0 0 1 63-149c9-10 18-19 29-26 7-4 14-5 20-9 43-19 90-25 137-22Z" fill="#000"/><path d="M475 243a276 276 0 0 1 121 23c23 10 45 25 63 43 20 21 33 47 40 75l6 45c2 24 0 48-1 72-1 15-3 29-2 44 0 4 0 8 2 12l-1 20c-2 5-2 10-2 16-2 24-2 49-6 74-1 12-3 25-8 36-3 9-8 17-15 24-12 13-27 24-43 33-19 11-39 16-58 24-5 2-10 4-13 8 8 1 15 0 23-2-5 12-6 24-6 36 0 5-1 11 1 16 3 5 8 9 13 12l35 13c22 8 43 18 65 27 2 4 5 7 6 12 6 11 7 23 3 35-5 13-15 24-27 31-16 11-36 19-55 24a494 494 0 0 1-235-7c-20-7-40-14-58-24-14-8-29-18-40-31-6-8-11-19-12-29a122 122 0 0 0 86-107c4-24 4-49 0-73 8 11 18 20 29 27l27 14a331 331 0 0 0 124 27h12v-4l-17-5-41-8c-23-5-46-10-68-19-13-6-27-13-39-21-10-9-19-18-27-29l-18-27c-3-5-6-13-11-17-10 1-20 3-30 1-14-2-28-7-39-16a94 94 0 0 1-33-49c-2-11-4-23 1-33 4-8 11-14 18-19 9-6 19-10 29-12 4-1 8-1 11-3l-1-3-12-1-7-15c-8-23-9-46-7-70a276 276 0 0 1 54-139c10-12 22-23 35-32a277 277 0 0 1 128-30Z" fill="#ffffff"/><path d="M260 571c4 0 7 0 11 2 5 1 11 4 14 8 2 3 2 7 0 10-5 6-12 10-16 16 6 4 14 6 21 9 4 1 8 3 11 6l1 3-8-2-24-7c-4-1-8-3-9-7-1-3 1-7 3-10l15-13c-4-7-15-8-19-15ZM703 577l2 3 2 16a483 483 0 0 1-2 89c-2 11-5 23-10 33a198 198 0 0 1-106 71c-1 14-3 31-2 47l5 5c8 6 18 9 27 12a451 451 0 0 1 68 28c7 4 13 9 18 15-5 1-10-1-16-2-22-9-43-19-65-27l-35-13c-5-3-10-7-13-12-2-5-1-11-1-16 0-12 1-24 6-36-8 2-15 3-23 2 3-4 8-6 13-8 19-8 39-13 58-24 16-9 31-20 43-33 7-7 12-15 15-24 5-11 7-24 8-36 4-25 4-50 6-74 0-6 0-11 2-16Z" fill="#000"/><path d="M623 498c2-1 5 2 6 3 8 8 19 13 30 13 5 0 11-1 16-3 2-2 4-5 7-6s7 0 9 2c4 3 4 10 0 13-5 7-14 10-22 11-10 1-21-2-30-8-8-4-14-10-17-18-1-3-2-6 1-7ZM530 500l3-1c3 2 1 5 0 7a97 97 0 0 1-50 38c-24 8-52 4-72-12-2-3-4-6-3-10s4-7 8-7c3 0 6 2 8 4 8 5 16 9 25 10 12 2 23 0 34-3 13-4 25-12 36-20 4-2 7-5 11-6Z" fill="#000000"/><path d="M533 358c6 2 9 8 10 14 0 8-3 16-7 22-3 3-7 4-10 1-4-3-2-10-2-15l-13 10c-6 4-13 7-20 9-9 4-19 5-30 8l-25 8c-8 3-15 8-22 12l-25 17c-5 3-8 7-11 12-2-4-1-8 1-11a401 401 0 0 1 35-29c16-13 36-21 55-28l28-11c8-4 14-11 21-16 5-2 10-4 15-3ZM626 376l6 7c17 7 33 7 49 16 4 2 7 6 9 10s1 8-2 12l-16-6c-12-6-24-7-36-11-7-3-14-4-19-10-4 8-4 17-8 26-1 1-1 4-4 3l-1-8 2-11c1-8 4-16 7-23 2-6 8-8 13-5Z" fill="#000000"/><path d="M607 606c0 3-2 6-4 9-4 6-11 10-18 12-5 1-9-2-13 0-4 0-8 1-12-1-2-1-2-4 0-6 3-4 8-7 12-7 4-1 7-1 10 2l1 7c5-2 7-5 11-8l13-8Z" fill="#000000"/><path fill-rule="evenodd" clip-rule="evenodd" d="M438 634c-4 6-11 11-19 13 0-4 3-7 6-9 4-3 8-5 13-4Zm14 12 32 5 24 6c15 4 29 8 44 10 10 1 20 0 29-1 12-2 23-4 36-1 6 2 11 6 15 11 3 5 4 10 2 16s-7 13-13 17c-7 5-15 6-24 7l-30 3-29-2-21-5-10-3-12-3-14-4-23-8-17-10c-7-5-10-15-8-23 2-9 10-15 19-15Zm4 9-9 1c-4 1-7 4-8 8 0 3 2 6 3 8v1l8 8 4 2c0-9 0-19 4-27l-2-1Zm9 2a703 703 0 0 1 40 10c-2 11-5 22-4 33l-22-6-14-5-4-2 4-17v-13Zm87 20c-14-1-27-5-41-8a46 46 0 0 1-1 18c-1 5-2 10-5 14l9 2 13 4 17 3 5 1c-3-10 0-21 2-30l1-4Zm54-5c4 0 8 0 12 2 3 1 6 5 8 8 1 2 2 5 1 8-3 5-7 10-12 13s-10 4-16 5l-2 1 7-18 2-19Zm-13 25 5-25-15 3-23 2c0 10-2 19-5 29l-2 5a135 135 0 0 0 35-1l4-1 1-12Z" fill="#000000"/><path fill-rule="evenodd" clip-rule="evenodd" d="M720 460c9 0 17 1 26 4 3 1 5 4 4 8l-4 3-3 3-9 4v21l-2 19-1 6c-1 7-2 14-5 21-3 10-10 17-19 22-5 3-10 5-16 6l-4 1c-12 3-25 2-37 1l-15-2c-7-1-14-6-18-12-5-4-6-9-9-15v-1c-3-7-3-15-4-23v-4a74 74 0 0 1 1-16c-8-4-17-3-25-2h-3l-12 5a169 169 0 0 1-8 52c-3 6-7 11-12 16l-1 1c-6 7-15 11-23 14a256 256 0 0 1-89 9l-27-6a53 53 0 0 1-22-17 99 99 0 0 1-18-50c-1-11-2-21-1-32-6-1-11-2-15-6 0-3 2-5 3-7l11-4 2-2c14-5 28-7 42-10l21-2 10-1c16-1 31-2 47-1h10l24 2h3c10 1 20 2 28 6l10 6 6 5 4 5 12 2h5l7 1 12 1 1-5c1-3 2-6 5-9a57 57 0 0 1 26-11l21-4a302 302 0 0 0 18-1l38-2 5 1Zm-20 12h23c-2 9-3 18-3 28l-2 19c0 8-1 17-4 25-1 6-3 11-8 15-7 6-15 8-23 11-11 1-22 1-32-1l-4-1c-6-1-13-3-16-7-5-6-7-14-9-21v-2c-2-14 0-29 2-43l1-8 9-3 8-2c7-3 13-5 20-5 13-3 25-5 38-5Zm-148 18c-3-5-7-7-12-8a554 554 0 0 0-130-1l-27 4-1 10v14c0 12 1 24 4 36 2 6 5 12 9 17l1 3 9 12c5 4 12 7 18 9a153 153 0 0 0 62 0l26-7c7-2 15-5 20-11 5-5 9-13 11-20l3-21 2-13 1-6c1-6 1-12 4-18Z" fill="#000000"/><path d="M502 141c9 0 18 0 25 6 6 4 12 8 15 14l4 13c2-6 3-14 8-19 5-4 11-6 17-7 8-2 17-2 25-1 5 1 9 4 12 8 3 3 4 8 4 12l4 21 13-16c10-10 27-13 40-7 5 2 10 4 14 8s7 8 6 14c0 6-2 11-3 17 4-2 8-3 12-2 7 1 13 5 16 11 4 14 1 29-5 42 7-1 14 0 20 3 5 2 9 6 11 11 1 6-1 12-5 16-5 8-12 15-20 21 4 4 8 8 10 14 1 6-1 12-6 15-7 5-17 6-25 7-3 0-8 1-9-3 0-2 2-3 4-4-4-4-8-7-10-11l-5-8 1-6-7-1-20 10c-23 8-48 8-71 9-33 1-66 0-99-3l-65-6c-3 0-5 2-8 3-13 7-26 12-38 21l-14 13c-2 5-1 10 0 14 1 7 3 13 1 20l-6 6c-5 4-8 9-11 15-6 9-10 19-12 30-4 20-1 43 1 63 1 5-1 10-2 15l-7 8c4-1 9-3 12 1 0 4-5 7-8 9l10-2 6 2c-1 7-7 9-12 13l3 4c1 2 0 4-1 5-5 6-11 10-18 13-2 1-5 2-7 0s-1-5-1-7c-2 0-4 1-6-1-2-4 1-8 3-11h-6v-5l5-7c-5 2-9 3-14 1l-34-22c-2-1-5-2-6-5l-4-11a259 259 0 0 1 11-127l-7-8c-4-5-5-12-7-18-3-9-5-17-1-26 2-7 6-11 11-16-4-3-7-7-9-12-3-6-2-14-2-20 1-6 3-13 8-16s11-2 17-2c-3-6-6-12-5-19 0-6 5-12 9-16 6-8 15-13 25-12 9 0 17 5 25 8-2-5-4-10-3-15 0-9 2-17 7-24 6-8 17-12 27-12 13 0 26 9 31 22 1-15 10-30 24-35 5-2 10-2 15-1 2-4 5-7 8-9 9-4 19-4 28-3 5 1 9 3 13 6 7 4 10 14 15 20 1-7 2-14 6-20s10-8 17-8Z" fill="#000000"/></g><g transform="translate(10 -60)"></g></g></svg>