<svg xmlns="http://www.w3.org/2000/svg" viewBox="0 0 980 980" fill="none" shape-rendering="auto"><desc>"Lorelei" by "Lisa Wischofsky", licensed under "CC0 1.0". / Remix of the original. - Created with dicebear.com</desc><metadata xmlns:dc="http://purl.org/dc/elements/1.1/" xmlns:cc="http://creativecommons.org/ns#" xmlns:rdf="http://www.w3.org/1999/02/22-rdf-syntax-ns#"><rdf:RDF><cc:Work><dc:title>Lorelei</dc:title><dc:creator><cc:Agent rdf:about="https://www.instagram.com/lischi_art/"><dc:title>Lisa Wischofsky</dc:title></cc:Agent></dc:creator><dc:source>https://www.figma.com/community/file/1198749693280469639</dc:source><cc:license rdf:resource="https://creativecommons.org/licenses/zero/1.0/" /></cc:Work></rdf:RDF></metadata><mask id="viewboxMask"><rect width="980" height="980" rx="0" ry="0" x="0" y="0" fill="#fff" /></mask><g mask="url(#viewboxMask)"><g transform="translate(10 -60)"><path fill-rule="evenodd" clip-rule="evenodd" d="M629 155c-11-6-24-9-37-9-17 1-34 4-50 11-19 9-38 22-49 40-5 7-10 16-9 25a91 91 0 0 0-47-16c-28-3-56 4-81 14a286 286 0 0 0-162 190l-2 3a342 342 0 0 0-41 198 370 370 0 0 0 51 158 3136 3136 0 0 0 19 111c2 3 3 7 7 8l6 1 6-3c8-9 14-19 20-30 5 7 11 13 20 16 11 3 24 3 35-1h6l2-1c12 0 24-2 35-4a761 761 0 0 1 52-8l17-2 39-6a598 598 0 0 1 94 1l4 1c11 1 21 2 31 5l6 2 16 5c8 4 16 6 25 5 18-1 35-7 50-17 7-4 13-10 13-19l5 4c9 7 19 14 29 16h11l-3-10-1-4c-12-27-19-58-19-88a851 851 0 0 1 9-113l5-52 2-24a620 620 0 0 0 2-121l-3-23-2-15v-3l-2-18-1-9 1-5a151 151 0 0 0-62-125 180 180 0 0 0-74-32l12-1c24 1 48 5 70 14a106 106 0 0 1 57 53l5 16 1 4 2-2c1-14-3-28-10-40-8-12-17-23-28-31-20-16-46-24-71-27-25-4-52-4-76 4l-27 11-14 7c5-12 14-22 24-31 8-6 17-12 26-15a109 109 0 0 1 57-5l6 1c3-1 5-6 3-9l-6-3-4-2ZM188 463h-1a333 333 0 0 0-19 109 377 377 0 0 0 30 151l-3-28-2-13a1288 1288 0 0 1-8-169v-3l1-33v-5l2-9Z" fill="#000000"/><path d="M495 234c28 1 56 6 84 15a201 201 0 0 1 100 65c19 25 31 55 35 86a361 361 0 0 1 2 101l-5 34-4 20c-1 2-1 2-3 2-2-4-2-8-2-12-1-15 1-29 2-44 1-24 3-48 1-72l-6-45c-7-28-20-54-40-75-18-18-40-33-63-43-22-9-44-15-67-19-18-3-36-4-54-4a277 277 0 0 0-128 29c-13 9-25 20-35 32a276 276 0 0 0-55 139c-1 24 0 47 8 70l7 15 12 1 1 3c-3 2-7 2-11 3-10 2-20 6-29 12-7 5-14 11-18 19-5 10-3 22-1 33 5 19 17 37 33 49 11 9 25 14 39 16 10 2 20 0 30-1 5 4 8 12 11 17l18 27a136 136 0 0 0 66 50c22 9 45 14 68 19l41 8 17 5v4h-12a535 535 0 0 1-67-8 255 255 0 0 1-84-33c-11-7-21-16-29-27a214 214 0 0 1-16 123c-15 27-40 48-70 57-3 1-7 2-10 1-2 0-2-1-2-3 1-3 4-5 6-6 12-8 26-14 38-23 13-11 24-23 31-38 6-15 10-32 12-49 2-13 3-26 2-40l-4-38-18-36-19 4a88 88 0 0 1-75-38 93 93 0 0 1-20-58c0-9 3-18 8-25s12-13 19-17c5-4 12-6 18-8l-9-24c-5-22-5-45-2-67a292 292 0 0 1 63-149c9-10 18-19 29-26 7-4 14-5 20-9 43-19 90-25 137-22Z" fill="#000"/><path d="M475 243a276 276 0 0 1 121 23c23 10 45 25 63 43 20 21 33 47 40 75l6 45c2 24 0 48-1 72-1 15-3 29-2 44 0 4 0 8 2 12l-1 20c-2 5-2 10-2 16-2 24-2 49-6 74-1 12-3 25-8 36-3 9-8 17-15 24-12 13-27 24-43 33-19 11-39 16-58 24-5 2-10 4-13 8 8 1 15 0 23-2-5 12-6 24-6 36 0 5-1 11 1 16 3 5 8 9 13 12l35 13c22 8 43 18 65 27 2 4 5 7 6 12 6 11 7 23 3 35-5 13-15 24-27 31-16 11-36 19-55 24a494 494 0 0 1-235-7c-20-7-40-14-58-24-14-8-29-18-40-31-6-8-11-19-12-29a122 122 0 0 0 86-107c4-24 4-49 0-73 8 11 18 20 29 27l27 14a331 331 0 0 0 124 27h12v-4l-17-5-41-8c-23-5-46-10-68-19-13-6-27-13-39-21-10-9-19-18-27-29l-18-27c-3-5-6-13-11-17-10 1-20 3-30 1-14-2-28-7-39-16a94 94 0 0 1-33-49c-2-11-4-23 1-33 4-8 11-14 18-19 9-6 19-10 29-12 4-1 8-1 11-3l-1-3-12-1-7-15c-8-23-9-46-7-70a276 276 0 0 1 54-139c10-12 22-23 35-32a277 277 0 0 1 128-30Z" fill="#ffffff"/><path d="M260 571c4 0 7 0 11 2 5 1 11 4 14 8 2 3 2 7 0 10-5 6-12 10-16 16 6 4 14 6 21 9 4 1 8 3 11 6l1 3-8-2-24-7c-4-1-8-3-9-7-1-3 1-7 3-10l15-13c-4-7-15-8-19-15ZM703 577l2 3 2 16a483 483 0 0 1-2 89c-2 11-5 23-10 33a198 198 0 0 1-106 71c-1 14-3 31-2 47l5 5c8 6 18 9 27 12a451 451 0 0 1 68 28c7 4 13 9 18 15-5 1-10-1-16-2-22-9-43-19-65-27l-35-13c-5-3-10-7-13-12-2-5-1-11-1-16 0-12 1-24 6-36-8 2-15 3-23 2 3-4 8-6 13-8 19-8 39-13 58-24 16-9 31-20 43-33 7-7 12-15 15-24 5-11 7-24 8-36 4-25 4-50 6-74 0-6 0-11 2-16Z" fill="#000"/><path d="M623 498c2-1 5 2 6 3 8 8 19 13 30 13 5 0 11-1 16-3 2-2 4-5 7-6s7 0 9 2c4 3 4 10 0 13-5 7-14 10-22 11-10 1-21-2-30-8-8-4-14-10-17-18-1-3-2-6 1-7ZM530 500l3-1c3 2 1 5 0 7a97 97 0 0 1-50 38c-24 8-52 4-72-12-2-3-4-6-3-10s4-7 8-7c3 0 6 2 8 4 8 5 16 9 25 10 12 2 23 0 34-3 13-4 25-12 36-20 4-2 7-5 11-6Z" fill="#000000"/><path d="m688 421 1 2-13 14c-7 6-14 10-22 14l-26 19-13 6-9 1-10 20-1 1-1-1c-2-5 0-13 1-19 2-6 2-12 8-16 3-3 7-3 10-5l31-20c8-6 16-11 25-13l19-3ZM371 430c9 0 19 0 28 2 9 1 17 4 26 6 5 2 10 1 15 2 8 0 15-1 23 2 8 2 16 3 23 6 12 3 24 5 35 11 0-2 0-4 2-6 2-1 5 0 6 2 5 7 8 17 11 25 1 4-2 9-6 9-5 1-8-4-12-6-5-2-7-7-12-9l-30-9-19-5-15-3-15-4-24-9-30-9-6-5Z" fill="#000000"/><path d="M607 606c0 3-2 6-4 9-4 6-11 10-18 12-5 1-9-2-13 0-4 0-8 1-12-1-2-1-2-4 0-6 3-4 8-7 12-7 4-1 7-1 10 2l1 7c5-2 7-5 11-8l13-8Z" fill="#000000"/><path fill-rule="evenodd" clip-rule="evenodd" d="m527 664 16 4 6 1a258 258 0 0 0 69 8c8 0 17 2 24 6 4 2 5 4 5 8l-6-2c-9-2-17-2-26-2h-8c1 6 0 11-2 16h3l12 1c2 0 4 1 5 3 0 3-2 3-4 4h-23a2932 2932 0 0 0-86-1l-2 1-1 1-3-2-27-2a3065 3065 0 0 0-8 0c-3-1-7-1-10-3l14-1h29c0-9-1-21 2-30-9 1-19 2-28 5-8 3-15 7-20 14l-4 4c-1 2-2 5-4 6l-2-1c0-4 0-10 2-14l11-11c10-7 24-10 36-12 10-1 20-2 30-1Zm-16 10a104 104 0 0 1 28 4l16 4v21l-18 1h-23v-3c1-9 2-19-3-27Zm89 13c-13 0-25-1-37-4 1 7 1 14-1 20h39c-2-5-2-11-1-16Z" fill="#000000"/><path d="m618 150 17 7c2 2 5 4 5 7-1 3-4 6-7 5-10-3-21-3-32-2a95 95 0 0 0-80 57 127 127 0 0 1 100-9c19 6 37 15 54 26a153 153 0 0 1 62 138c-2 16-6 31-14 45-6 10-13 18-22 25s-18 11-27 16c-5 2-11 4-16 3l-4-1v-10c-1-13-4-27-7-40-6-22-14-43-24-64-8-14-16-30-28-41 10 21 15 45 13 69-1 19-6 37-12 55-7 17-16 34-29 48-6 6-14 12-22 13l6-12 7-27c2-13 4-26 4-39a158 158 0 0 1-59 78c-5 3-12 6-19 7-3 0-5-3-4-6l7-9c11-16 20-33 27-51 9-22 12-45 12-68a362 362 0 0 1-48 78c-15 15-31 27-50 37l-26 13c-4 1-8 3-11 0a783 783 0 0 0 13-72c1-18-1-36-4-54-1 8-4 16-8 23-9 18-23 34-38 48l-1 5c-2 14-3 29-2 43 1 15 4 28 8 42 2 8 6 15 9 23 1 2 2 4 1 7s-4 4-7 4a96 96 0 0 1-61-13c-3-2-5-5-10-5-28-1-56-13-75-34-13-16-20-36-23-56-3-29 2-57 12-84a281 281 0 0 1 149-155c26-10 55-17 83-14 16 1 34 6 47 16-1-9 3-17 8-24a128 128 0 0 1 78-49c15-3 33-4 48 1Z" fill="#000000"/></g><g transform="translate(10 -60)"></g></g></svg>