<svg xmlns="http://www.w3.org/2000/svg" viewBox="0 0 980 980" fill="none" shape-rendering="auto"><desc>"Lorelei" by "Lisa Wischofsky", licensed under "CC0 1.0". / Remix of the original. - Created with dicebear.com</desc><metadata xmlns:dc="http://purl.org/dc/elements/1.1/" xmlns:cc="http://creativecommons.org/ns#" xmlns:rdf="http://www.w3.org/1999/02/22-rdf-syntax-ns#"><rdf:RDF><cc:Work><dc:title>Lorelei</dc:title><dc:creator><cc:Agent rdf:about="https://www.instagram.com/lischi_art/"><dc:title>Lisa Wischofsky</dc:title></cc:Agent></dc:creator><dc:source>https://www.figma.com/community/file/1198749693280469639</dc:source><cc:license rdf:resource="https://creativecommons.org/licenses/zero/1.0/" /></cc:Work></rdf:RDF></metadata><mask id="viewboxMask"><rect width="980" height="980" rx="0" ry="0" x="0" y="0" fill="#fff" /></mask><g mask="url(#viewboxMask)"><g transform="translate(10 -60)"><path d="M612 96c15-1 29 1 42 9 11 7 20 18 23 31 3 14 1 27-3 40-4 11-8 22-15 32l26-4c20-1 40 1 58 11 21 12 42 30 51 52 6 14 7 30 1 44s-17 26-30 35c4 12 5 25 2 38-3 14-8 30-19 41a93 93 0 0 1-52 22c-7 1-16 2-23 1-11-2-21-5-29-13l-17-22-6-21c-13-2-24-8-35-15a54 54 0 0 1-39 21c-13 0-26-5-37-10-15-8-28-19-40-31l-9 15c-16 26-39 47-66 60-19 10-39 15-60 13 6 11 7 24 6 36-1 10-6 19-14 26-6 5-14 7-21 9-2 8-5 16-10 23-8 10-21 16-34 17-12 0-23-4-33-10-12-9-22-22-26-36-2-10-2-20 1-29-15-1-30-6-40-17-6-6-10-14-13-22-4-15-2-30 2-45 9-27 28-51 52-67 9-6 18-11 29-14-6-8-10-17-8-27 1-14 10-26 20-35 13-13 30-20 48-23 14-3 30-3 43 2 0-6 1-10 3-16 4-13 12-25 21-36 15-17 32-32 52-42 5-3 10-5 16-6 10-2 22 0 31 6 6 5 11 12 14 19a194 194 0 0 1 138-62ZM323 618c15 5 25 20 27 35 1 8-2 16-7 23 6 0 12 2 17 6 5 5 8 13 9 20s-2 15-7 20c2 3 3 6 1 9-5 5-13 7-20 4-9-3-16-11-20-20-10 4-20 4-31 4l-14-4c-7-3-13-10-16-17-4-10-6-21-4-32 2-14 9-27 20-37 11-11 30-17 45-11Z" fill="#000000"/><path d="M495 231a231 231 0 0 1 219 204c1 10 2 21 0 30-1 4-1 7-4 8-3-10-3-19-4-29a220 220 0 0 0-239-205c-42 4-83 19-117 44l-17 13a221 221 0 0 0-78 164c0 23 7 43 15 64h17c3 1 4 4 2 6l-6 2c-15 1-31 7-42 17-8 9-14 19-16 31-3 15 0 32 8 45 9 15 24 27 40 33 14 5 29 7 43 5 4-1 8-2 11 0v3c-5 5-11 6-18 7-16 3-33-1-47-8a86 86 0 0 1-47-58c-4-18-1-37 9-53 8-12 20-21 34-26-7-14-10-28-12-43-2-18-2-35 0-53 1-13 4-25 8-38a227 227 0 0 1 99-122c41-28 92-43 142-41Z" fill="#000"/><path d="M535 244a220 220 0 0 1 171 200c1 10 1 19 4 29l-2 18v22c-3 4-4 9-4 14-2 8-2 15-2 23v65c0 21-3 42-11 61-4 13-10 24-18 35-10 12-21 22-34 31-11 9-24 17-37 24l-22 14-12 8 9-2c-3 11-3 24-4 36 0 8 1 16 7 22a235 235 0 0 0 81 45c6 7 11 16 13 25 1 9 0 18-4 27-6 10-14 18-23 24-13 10-28 17-43 22a417 417 0 0 1-217 11c-16-3-33-9-48-17-10-5-21-12-28-21-6-6-10-14-11-22-2-10 0-21 5-30 21-13 39-32 49-54 5-11 7-22 8-34 1-16 0-32-1-47-2-20-3-41-8-61 11 12 23 24 37 32 17 11 36 20 55 26 20 7 41 13 63 18l25 3c3 0 6 0 8-2 2-1 1-2 2-3l-17-2c-29-7-58-16-87-27-18-7-36-15-53-27-18-13-33-30-47-47l-11-16-1-1v-3c-3-2-7-1-11 0-14 2-29 0-43-5-16-6-31-18-40-33-8-13-11-30-8-45 2-12 8-22 16-31 11-10 27-16 42-17l6-2c2-2 1-5-2-6h-17c-8-21-15-41-15-64-1-14 2-27 5-41a221 221 0 0 1 73-123l17-13a230 230 0 0 1 185-39Z" fill="#ffffff"/><path d="M708 513c3 3 2 7 3 12v29c0 26 2 54 0 80-3 31-14 63-36 86-25 28-57 51-93 64l2 7v35c1 6 4 10 8 14l26 19 32 20 24 12c2 0 3 1 5 3l-19-5c-19-6-37-14-54-25-9-5-19-12-26-20-6-6-7-14-7-22 1-12 1-25 4-36l-9 2 12-8 22-14c13-7 26-15 37-24 13-9 24-19 34-31a178 178 0 0 0 29-96v-65c0-8 0-15 2-23 0-5 1-10 4-14ZM278 574c5 5 4 14 0 19l-3 7c1 3 5 5 7 6 6 3 12 7 19 9 0 4-3 5-7 5-6-1-13-3-18-6-7-3-13-8-13-16 0-6 5-9 6-14 2-4 0-7-1-11 4-1 7-2 10 1ZM328 667l11 16c14 17 29 34 47 47 17 12 35 20 53 27a714 714 0 0 0 104 29c-1 1 0 2-2 3-2 2-5 2-8 2l-25-3a478 478 0 0 1-118-44c-14-8-26-20-37-32 5 20 6 41 8 61 1 15 2 31 1 47-1 12-3 23-8 34-10 22-28 41-49 54l-14 8c2-4 6-6 9-9 13-11 24-25 34-39 6-10 12-21 14-33 4-19 3-39 3-58l-3-59 2-10c-10-11-19-26-22-41Z" fill="#000"/><path d="M668 488c8 0 16 4 22 10 2 3 5 8 4 12 0 3-4 5-4 8-2 8-9 14-16 18-4 2-11 2-14-2-3-3-3-8-4-12 0-8 3-17 6-24-4 0-8 2-11 5-11 6-19 17-24 28-2 3-3 8-6 10-1 1-3 1-4-1v-9c4-13 12-25 22-34 9-6 19-9 29-9ZM444 498c20-1 43 2 60 13 9 5 17 13 20 23 2 4 0 7-2 11-2 3-7 5-11 7-12 3-24 1-36-1-5-1-11-2-14-6-4-5-3-11-1-17 1-7 3-14 9-20h-23c-17 2-33 9-47 20-2 2-5 4-8 3-5 0-8-5-7-9s4-6 7-8c16-10 35-14 53-16Z" fill="#000000"/><path d="M658 387c7 1 14 2 20 5l6 5c-8 5-18 8-28 8h-17l-16 2c-6 1-10 7-13 12-6 11-8 25-10 37-4-3-3-8-3-12 0-14 2-29 10-41 4-6 10-13 17-14 11-3 23-3 34-2ZM533 426c6-1 12 0 17 3 2 0 2 1 2 3l-8 8c-3 3-8 4-12 6l-18 3-47 3c-14 1-28 1-41 4-14 4-26 10-37 18l-9 8c-1-2-1-4 1-6 3-6 9-12 14-17 16-12 35-19 55-22l69-7c5 0 9-3 14-4Z" fill="#000000"/><path d="M594 572a37 37 0 0 1 19 29c0 9-5 18-13 22l-17 7c-4 1-6 2-9 0-2-3-1-4 1-6 6-5 15-7 21-12 3-2 5-5 5-9 0-10-5-17-7-26v-5Z" fill="#000000"/><path d="M608 667c2 0 4 0 5 2l-1 15c5-1 10-4 16-2 0 4-4 7-7 9l-35 12c-17 4-34 7-51 8-7 1-15-1-22-3-2-1-4-1-4-4 4-2 9 0 12-1 2-5 7-7 11-10l31-19c3-1 7-4 10-4 4-1 7 4 11 4 8-2 16-7 24-7ZM607 712c1 4 1 8-1 11-2 5-7 9-12 11-6 2-12 3-18 2-2 0-6-2-6-5 1-2 5-2 7-3 8-4 18-7 25-13 2-1 3-3 5-3Z" fill="#000000"/><path d="M612 96c15-1 31 2 44 10 10 7 18 18 21 31 3 14 1 27-3 40-4 11-9 21-15 31 12-2 25-4 37-4s23 1 34 5c12 4 24 12 34 20 12 10 23 23 30 37 5 12 7 26 3 39s-12 25-22 34c-12 10-25 18-40 23-24 9-50 12-76 10-2 6-5 11-10 15-6 6-16 7-24 6-14-2-27-8-39-16a54 54 0 0 1-39 21c-13 0-26-5-37-10-15-8-28-19-40-31l-9 15c-16 26-39 47-66 60-19 10-39 15-60 13 6 11 7 24 6 36-1 11-6 20-14 27-6 4-14 7-21 8-2 11-7 20-15 28-8 7-19 12-30 12-10 0-19-3-28-7-14-9-25-23-30-39-2-10-2-20 1-29-15-1-30-6-40-17-7-7-11-15-13-24-4-14-2-29 2-43 9-27 28-51 52-67 9-6 18-11 29-14-5-6-8-13-9-21 0-9 3-18 8-26 6-9 14-17 23-23a102 102 0 0 1 81-13c0-5 0-9 2-14 3-9 8-18 13-27a162 162 0 0 1 65-55c10-5 21-7 32-3 11 3 20 13 25 24 12-13 26-24 41-34a199 199 0 0 1 97-28Z" fill="#000000"/></g><g transform="translate(10 -60)"></g></g></svg>