<svg xmlns="http://www.w3.org/2000/svg" viewBox="0 0 980 980" fill="none" shape-rendering="auto"><desc>"Lorelei" by "Lisa Wischofsky", licensed under "CC0 1.0". / Remix of the original. - Created with dicebear.com</desc><metadata xmlns:dc="http://purl.org/dc/elements/1.1/" xmlns:cc="http://creativecommons.org/ns#" xmlns:rdf="http://www.w3.org/1999/02/22-rdf-syntax-ns#"><rdf:RDF><cc:Work><dc:title>Lorelei</dc:title><dc:creator><cc:Agent rdf:about="https://www.instagram.com/lischi_art/"><dc:title>Lisa Wischofsky</dc:title></cc:Agent></dc:creator><dc:source>https://www.figma.com/community/file/1198749693280469639</dc:source><cc:license rdf:resource="https://creativecommons.org/licenses/zero/1.0/" /></cc:Work></rdf:RDF></metadata><mask id="viewboxMask"><rect width="980" height="980" rx="0" ry="0" x="0" y="0" fill="#fff" /></mask><g mask="url(#viewboxMask)"><g transform="translate(10 -60)"><path d="M506 219c30 6 60 19 84 38 7 5 15 11 20 18 1 3 3 5 3 8-1 3-5 2-7 1l-18-13c-19-16-41-28-65-35 12 6 24 15 29 27 1 2 3 6 0 7l-11-4a280 280 0 0 0-76-19c8 3 15 6 22 11 2 1 4 2 4 4h-17c-20-1-41-1-61 2-15 2-29 6-43 12l-7 4-18 13c-7 5-12 12-16 19-4 9-7 18-5 28l4 22-1 4c-16 14-27 32-35 52-4 11-6 22-7 33 0 10 0 20 2 30l8 32 7 22 2 8-6 6-15 18c-2 2-3 5-6 5-3 1-7 1-8-2a266 266 0 0 1-40-107c-2-13-4-26-4-39a193 193 0 0 1 49-131c13-16 29-29 47-40a253 253 0 0 1 185-34Z" fill="#000000"/><path d="M495 234c28 1 56 6 84 15a201 201 0 0 1 100 65c19 25 31 55 35 86a361 361 0 0 1 2 101l-5 34-4 20c-1 2-1 2-3 2-2-4-2-8-2-12-1-15 1-29 2-44 1-24 3-48 1-72l-6-45c-7-28-20-54-40-75-18-18-40-33-63-43-22-9-44-15-67-19-18-3-36-4-54-4a277 277 0 0 0-128 29c-13 9-25 20-35 32a276 276 0 0 0-55 139c-1 24 0 47 8 70l7 15 12 1 1 3c-3 2-7 2-11 3-10 2-20 6-29 12-7 5-14 11-18 19-5 10-3 22-1 33 5 19 17 37 33 49 11 9 25 14 39 16 10 2 20 0 30-1 5 4 8 12 11 17l18 27a136 136 0 0 0 66 50c22 9 45 14 68 19l41 8 17 5v4h-12a535 535 0 0 1-67-8 255 255 0 0 1-84-33c-11-7-21-16-29-27a214 214 0 0 1-16 123c-15 27-40 48-70 57-3 1-7 2-10 1-2 0-2-1-2-3 1-3 4-5 6-6 12-8 26-14 38-23 13-11 24-23 31-38 6-15 10-32 12-49 2-13 3-26 2-40l-4-38-18-36-19 4a88 88 0 0 1-75-38 93 93 0 0 1-20-58c0-9 3-18 8-25s12-13 19-17c5-4 12-6 18-8l-9-24c-5-22-5-45-2-67a292 292 0 0 1 63-149c9-10 18-19 29-26 7-4 14-5 20-9 43-19 90-25 137-22Z" fill="#000"/><path d="M475 243a276 276 0 0 1 121 23c23 10 45 25 63 43 20 21 33 47 40 75l6 45c2 24 0 48-1 72-1 15-3 29-2 44 0 4 0 8 2 12l-1 20c-2 5-2 10-2 16-2 24-2 49-6 74-1 12-3 25-8 36-3 9-8 17-15 24-12 13-27 24-43 33-19 11-39 16-58 24-5 2-10 4-13 8 8 1 15 0 23-2-5 12-6 24-6 36 0 5-1 11 1 16 3 5 8 9 13 12l35 13c22 8 43 18 65 27 2 4 5 7 6 12 6 11 7 23 3 35-5 13-15 24-27 31-16 11-36 19-55 24a494 494 0 0 1-235-7c-20-7-40-14-58-24-14-8-29-18-40-31-6-8-11-19-12-29a122 122 0 0 0 86-107c4-24 4-49 0-73 8 11 18 20 29 27l27 14a331 331 0 0 0 124 27h12v-4l-17-5-41-8c-23-5-46-10-68-19-13-6-27-13-39-21-10-9-19-18-27-29l-18-27c-3-5-6-13-11-17-10 1-20 3-30 1-14-2-28-7-39-16a94 94 0 0 1-33-49c-2-11-4-23 1-33 4-8 11-14 18-19 9-6 19-10 29-12 4-1 8-1 11-3l-1-3-12-1-7-15c-8-23-9-46-7-70a276 276 0 0 1 54-139c10-12 22-23 35-32a277 277 0 0 1 128-30Z" fill="#ffffff"/><path d="M260 571c4 0 7 0 11 2 5 1 11 4 14 8 2 3 2 7 0 10-5 6-12 10-16 16 6 4 14 6 21 9 4 1 8 3 11 6l1 3-8-2-24-7c-4-1-8-3-9-7-1-3 1-7 3-10l15-13c-4-7-15-8-19-15ZM703 577l2 3 2 16a483 483 0 0 1-2 89c-2 11-5 23-10 33a198 198 0 0 1-106 71c-1 14-3 31-2 47l5 5c8 6 18 9 27 12a451 451 0 0 1 68 28c7 4 13 9 18 15-5 1-10-1-16-2-22-9-43-19-65-27l-35-13c-5-3-10-7-13-12-2-5-1-11-1-16 0-12 1-24 6-36-8 2-15 3-23 2 3-4 8-6 13-8 19-8 39-13 58-24 16-9 31-20 43-33 7-7 12-15 15-24 5-11 7-24 8-36 4-25 4-50 6-74 0-6 0-11 2-16Z" fill="#000"/><path d="M683 485c4 0 8 0 10 3 4 3 4 10-1 13-3 2-6 2-10 2l-18 4c0 7-1 15-4 22-2 5-6 9-10 12-6 3-13 1-17-4l-3-8c-3 3-5 6-9 8-3 1-4 0-4-3 1-6 4-11 8-15a91 91 0 0 1 42-32l16-2ZM441 499c11 0 21 2 31 4 14 4 28 8 40 18 3 3 8 6 9 10 0 2 0 3-2 3l-11-5c-10-5-22-8-34-10-2 9-4 18-10 26-4 4-9 6-15 6-8-1-16-5-21-11-5-7-6-14-7-23l-14 4c-3 1-6 2-9 1-5-1-7-6-6-11 1-4 5-6 9-7 12-5 27-6 40-5Z" fill="#000000"/><g fill="#000000"><path d="M675 381c5 0 8 4 9 8-11 3-23 8-34 13l-16 8c-7 4-14 7-22 9-5 1-9 0-13 3l-7 8c-3 3-4 7-6 12-1-1-3-2-3-4-2-5 0-11 2-16 2-6 3-12 8-17 3-4 5-8 9-10 4-3 10-4 14 0l1 6 25-14c11-4 21-8 33-6ZM481 383c14 2 32 1 44 7 9 4 13 11 18 19l-1 4c-4 3-9 4-14 2-4-2-6-6-9-8-2-2-5-2-8-3l-25-2c-12-1-24-6-36-7l-27-5-5-2c9-3 19-4 29-5 11 0 23-2 34 0Z"/><path d="M540 387c6-2 12-2 16 2 6 3 9 9 11 15 0-4 2-9 5-12 6 3 11 9 13 15 1 5 2 10 0 15s-9 8-13 5c-4-4-4-12-5-18-1 4-2 8-5 10s-7 1-9-2l-5-12-7-15-1-3Z"/></g><path d="M293 643c3-2 7-1 9 1 3 2 4 6 3 10-2 4-7 7-12 5-3-1-5-5-4-8 0-4 1-7 4-8Z" fill="#000000"/><path d="M603 613v1c-4 8-11 15-20 18-3 1-7 1-9-1v-4c7-5 16-9 24-12l5-2Z" fill="#000000"/><path d="M619 659c1 3-1 7-2 9-5 9-14 13-21 21 0 4-2 7-3 11-3 9-6 17-13 23-3 2-7 2-11 1-3 0-6-2-7-5-1-5 0-9 3-13 6-12 16-19 26-27 8-6 15-10 21-17 2-1 4-4 7-3Z" fill="#000000"/><path d="M463 214c36 1 71 9 103 27 14 7 27 16 38 27 3 4 7 7 8 12 1 2 1 4-1 5a319 319 0 0 0-56-24c1 4 3 8 0 12l-26-8-44-9c2 2 5 3 6 6-10 1-20 0-30-1-31-1-61 3-90 14l-4 3-12 7c-6 4-11 8-15 13-8 8-14 19-16 31-2 8 0 17 2 25l2 10-6 6a142 142 0 0 0-33 56c-4 13-4 28-4 42 1 17 6 33 11 49l8 26-1 1-11-4c-10-5-20-10-29-17-6-4-13-10-13-18l5 3c-24-34-34-76-28-117 5-34 20-66 42-93 22-26 49-46 80-60 35-17 75-24 114-24Z" fill="#000000"/></g><g transform="translate(10 -60)"><path d="M357 396c9-2 18 4 20 12 1 5 1 12-1 17-3 7-11 10-18 9-9 0-16-9-16-18 0-4 2-7 3-11 3-4 8-8 12-9Z" fill="#000000"/><path d="M358 405c7-2 12 3 13 9 2 8-5 15-13 14-7-2-11-10-8-17 2-3 5-5 8-6Z" fill="#fff"/><path fill-rule="evenodd" clip-rule="evenodd" d="M326 398c-2-4-5-7-9-9-5-1-10 1-14 3-4 1-7 4-9 7-11-4-23 0-30 10-3-4-6-7-10-9-3-1-6 0-9 1l-4 1c-6 1-12 3-16 9-4 7-4 16 0 23 2 5 6 8 11 10-7 1-13 5-17 11l-2-1-9-3c-6 0-12 2-17 6-4 4-8 8-10 13-2 7-1 13 1 20-9 8-13 21-6 32 4 7 10 9 17 11 5 1 11 1 16-1 2 6 6 12 11 15 6 3 14 4 21 1 5-1 10-3 13-8 3-3 3-8 4-12 5-2 9-3 13-7 5-4 9-10 10-16s0-12-2-17c-3-6-9-10-15-12 1-5 2-9 1-14l6 2c2 6 4 11 8 15 7 5 15 7 23 6 6 0 11-4 14-9 2-3 3-7 3-11h1c7 1 14 1 19-4 7-6 9-18 6-27-3-8-9-11-17-14 2-7 2-15-2-22Zm-70 51 2-10-10 6 8 4Z" fill="#000000"/><path d="M236 409c3-2 7-2 10-2 7 2 12 9 11 16 0 6-3 11-8 14-9 5-22-2-22-13 0-6 4-13 9-15ZM309 398c5 0 10 3 12 8 4 6 3 14 1 22 6 2 10 6 12 12 3 5 1 12-3 16-5 4-11 5-17 4-2 7-7 13-14 16-5 1-11 0-15-4-5-4-7-10-8-16-4-1-7-1-10-4-5-4-5-12-2-17l8-6c-3-4-5-10-4-15s4-9 9-10c6-1 11 1 16 5 4-6 8-11 15-11ZM257 460c2 8 0 16-3 23 5 0 9 1 13 4 5 4 7 9 7 15 1 5-1 10-6 13-5 4-12 5-18 5 1 5 2 10-1 14-5 7-15 8-22 5-6-3-10-9-12-16-6 2-13 3-19 2-5-1-9-4-11-8-4-5-4-12 0-17l10-7c-4-7-7-17-4-25 1-5 6-9 12-8 6 0 12 3 17 7 3-7 8-14 16-16 8-3 18 0 21 9Z" fill="#fff"/></g></g></svg>