<svg xmlns="http://www.w3.org/2000/svg" viewBox="0 0 980 980" fill="none" shape-rendering="auto"><desc>"Lorelei" by "Lisa Wischofsky", licensed under "CC0 1.0". / Remix of the original. - Created with dicebear.com</desc><metadata xmlns:dc="http://purl.org/dc/elements/1.1/" xmlns:cc="http://creativecommons.org/ns#" xmlns:rdf="http://www.w3.org/1999/02/22-rdf-syntax-ns#"><rdf:RDF><cc:Work><dc:title>Lorelei</dc:title><dc:creator><cc:Agent rdf:about="https://www.instagram.com/lischi_art/"><dc:title>Lisa Wischofsky</dc:title></cc:Agent></dc:creator><dc:source>https://www.figma.com/community/file/1198749693280469639</dc:source><cc:license rdf:resource="https://creativecommons.org/licenses/zero/1.0/" /></cc:Work></rdf:RDF></metadata><mask id="viewboxMask"><rect width="980" height="980" rx="0" ry="0" x="0" y="0" fill="#fff" /></mask><g mask="url(#viewboxMask)"><g transform="translate(10 -60)"><path d="M663 169c3 1 4 4 5 6l1 15c0 17-6 34-15 49 12-4 25-6 38-5 14 2 29 6 40 15 4 5 10 11 9 18l-4-2-17-10c-10-5-22-6-34-7-10 1-20 2-29 5 6 1 11 4 17 7 23 14 44 35 53 61 5 13 6 27 2 41-1 1-2 3-1 5 7 19 9 39 8 59-1 17-5 34-13 49-4 9-11 17-18 23-5 4-12 7-19 5-7-3-12-10-15-18-4-8-4-18-4-27 1-10 2-20 5-29-7 4-15 9-23 9l8-9c6-6 11-13 15-21 3-11 3-22 2-32-4-25-15-48-32-66a128 128 0 0 1-4 80c-5 13-14 25-25 35-7 8-18 16-29 18-2 0-6 0-6-2 3-7 8-14 10-22 4-12 4-25 3-38-1-18-4-35-9-51l-4-11v17c-1 16-5 32-11 47a97 97 0 0 1-58 49c-4 1-9 3-13-1l11-7c8-6 16-11 23-18s12-16 17-24c8-17 13-35 13-54-2 11-7 22-11 32-9 17-21 33-35 47-14 15-31 28-50 35-5 2-11 4-17 3l-3-3c0-7 3-13 5-19 3-16 6-32 6-48a170 170 0 0 1-59 67c-14 11-30 19-47 25-4 24-6 48-4 72 3 26 12 51 30 71 1 2 3 3 3 6-5-1-8-4-11-7a97 97 0 0 1-30-47c-1 16 1 31 1 47l-1 5c-9 1-18-3-26-7l-29-16c-12-10-24-23-31-38-8-17-17-34-23-52-11-32-17-65-12-99 4-26 13-51 28-72 20-26 45-48 74-64a351 351 0 0 1 288-27c22-10 41-29 51-51l6-19Z" fill="#000000"/><path d="M486 236c57-2 115 18 159 56a209 209 0 0 1 73 190c-1 4-1 8-4 12l-1-3v-33a215 215 0 0 0-172-206 235 235 0 0 0-270 153c-12 37-14 78-6 116 6-2 12-2 17-2 2 1 5 1 6 3s0 3-1 4l-12 4c-14 3-27 8-37 18a63 63 0 0 0-22 45c0 12 3 24 8 35 8 13 19 24 33 31 18 10 41 13 62 7 2-1 4-2 6-1s3 4 4 6l15 30a215 215 0 0 0 72 63c28 15 59 21 90 26 3 1 8 1 10 4 1 2 0 3-2 4l-11 1a231 231 0 0 1-147-62c5 18 8 36 8 54 0 12-2 23-6 34-5 10-11 18-19 26a196 196 0 0 1-60 43c-1-1 1-2 2-3l17-14c13-12 25-23 35-38a93 93 0 0 0 17-65l-4-39-2-10-12-17c-5-10-11-20-13-31a93 93 0 0 1-96-31 81 81 0 0 1-19-51c0-12 3-23 8-34 9-16 23-29 40-36-8-31-8-62-3-93 8-40 26-77 51-108 45-54 115-87 186-88Z" fill="#000"/><path d="M541 252a214 214 0 0 1 172 206v33c-1 5-2 10-1 15-2 2-3 3-3 5-3 18-1 37 1 55 4 29 6 59 2 88-3 28-13 56-30 79-16 21-38 34-62 43-15 6-30 9-45 13-11 2-22 4-32 8 1 2 4 1 6 2 12 1 24-1 36-2-5 8-8 17-9 26-2 10 2 19 9 26 6 7 15 11 24 14 5 2 11 3 17 3 7 9 13 18 14 30 2 12-1 24-8 34-9 14-22 23-37 30-18 9-38 15-57 18a352 352 0 0 1-192-23c-18-10-38-23-48-42-4-7-8-16-6-24 18-10 33-23 47-38 8-8 14-16 19-26 4-11 6-22 6-34 0-18-3-36-8-54a235 235 0 0 0 147 62l11-1c2-1 3-2 2-4-2-3-7-3-10-4-31-5-62-11-90-26-18-10-36-22-50-37-8-8-16-17-22-26l-15-30c-1-2-2-5-4-6s-4 0-6 1a82 82 0 0 1-95-38c-5-11-8-23-8-35 1-17 9-34 22-45 10-10 23-15 37-18l12-4c1-1 2-2 1-4s-4-2-6-3c-5 0-11 0-17 2-8-38-6-79 6-116a236 236 0 0 1 270-153Z" fill="#ffffff"/><path d="m712 506 3 3 1 13 3 45c3 20 5 40 5 60 0 16-1 32-5 47-6 28-20 56-40 76a174 174 0 0 1-88 46c-1 9-4 16-4 25-1 6 2 10 5 15 8 8 18 14 28 19l18 9c-3 3-8 1-12 2-6 0-12-1-17-3-9-3-18-7-24-14-7-7-11-16-9-26 1-9 4-18 9-26-12 1-24 3-36 2-2-1-5 0-6-2 10-4 21-6 32-8 15-4 30-7 45-13 24-9 46-22 62-43 17-23 27-51 30-79 4-29 2-59-2-88-2-18-4-37-1-55 0-2 1-3 3-5ZM262 566c6 0 12 1 15 6 2 3 2 7 1 10-3 8-9 14-11 22-1 4 0 7 3 9 7 5 16 7 24 10l-2 2h-11c-6-1-12-2-17-5-5-4-9-11-7-18 2-9 9-15 12-23-7-4-14-2-20-8 3-4 8-6 13-5Z" fill="#000"/><path d="M669 473c8-1 16 1 22 6 3 3 6 7 6 11 1 5-4 10-9 10-4-1-6-3-8-6l-10-7c9 16 4 38-10 49-7 6-18 8-25 1-6-5-8-12-8-20-2 5-5 9-6 14-1 2-1 4-3 4-2-5-1-11 1-17 6-16 17-30 32-38 5-4 11-6 18-7ZM457 484c27 1 53 18 64 42 2 2 4 6 1 9-3 0-5-4-7-6-4-8-10-14-17-19 2 11 2 21-4 31-5 8-16 13-25 12-7-2-14-5-19-11-6-6-8-16-8-24 0-7 3-13 6-18-14 3-28 9-39 18-3 1-5 3-8 3-4-1-6-4-6-8 0-3 2-6 4-8 8-6 16-12 26-16s21-6 32-5Z" fill="#000000"/><path d="M479 386c16 1 33 7 46 17 3 3 7 5 8 9 1 2-1 5-3 4-8-1-15-5-23-7-7-3-15-5-23-5-7-1-15 0-22 1-15 2-30 9-43 16l-21 9-1-1c1-4 3-9 6-12 6-10 17-16 27-21 15-7 32-11 49-10ZM673 390c5 2 11 5 15 10 4 4 5 9 4 15l-23-7c-7-2-13-1-20-2-7 0-15 1-21 5l-13 8h-3c-1-3 0-6 2-8 5-9 13-15 22-18 12-4 24-6 37-3Z" fill="#000000"/><path d="M607 606c0 3-2 6-4 9-4 6-11 10-18 12-5 1-9-2-13 0-4 0-8 1-12-1-2-1-2-4 0-6 3-4 8-7 12-7 4-1 7-1 10 2l1 7c5-2 7-5 11-8l13-8Z" fill="#000000"/><path d="M587 747c7-1 14 0 20 2-3 3-9 4-13 5l-43 11c-2 1-5 2-6 0-1-3 1-5 3-6 5-4 12-7 19-8l20-4Z" fill="#000000"/><path d="m663 170 4 3c2 5 2 11 2 16 0 18-6 35-15 50 13-4 26-6 40-4 13 2 28 6 38 16 5 4 10 10 9 16l-6-3c-7-5-14-9-22-11-19-6-38-5-56 0l17 8c23 13 42 32 52 56 5 13 7 26 4 39s-9 26-17 36a151 151 0 0 1-51 42c-4 3-9 5-14 5l10-12c9-7 15-18 16-29 2-13 0-26-4-38-5-19-15-35-28-50 8 27 6 56-4 81-6 14-15 26-26 36-7 7-16 13-26 16-3 0-6 1-8-1l7-13c4-9 6-18 6-27 2-22-2-44-7-65l-6-18c1 20-1 39-8 57a94 94 0 0 1-61 56c-4 1-9 3-13-1 6-4 12-7 17-12 9-6 17-13 24-21l11-18c8-16 12-34 12-52-2 12-7 23-12 34-11 19-24 36-40 51-14 14-30 25-49 31-4 1-7 2-11 1l-4-2c0-7 3-13 4-19 4-16 7-32 7-48a181 181 0 0 1-56 65c-16 11-32 20-50 27a253 253 0 0 0-1 89c4 20 14 39 27 54l4 5c-6 0-9-4-13-7a97 97 0 0 1-29-46c-1 12 0 24 1 37 0 5 1 10-1 15l-4-3-11-7c-10-7-19-14-27-23-11-12-19-27-23-43l-3-6c-14-13-27-28-36-45-10-19-16-39-17-60-2-32 7-63 24-90 19-31 48-55 79-73a354 354 0 0 1 280-28c3 1 6 4 10 2a102 102 0 0 0 52-63l2-6Z" fill="#000000"/></g><g transform="translate(10 -60)"></g></g></svg>